<mxfile host="Electron" agent="Mozilla/5.0 (Macintosh; Intel Mac OS X 10_15_7) AppleWebKit/537.36 (KHTML, like Gecko) draw.io/24.7.8 Chrome/128.0.6613.36 Electron/32.0.1 Safari/537.36" version="24.7.8">
  <diagram name="Page-1" id="73v7qiTGzkuEvO703by5">
    <mxGraphModel dx="1688" dy="694" grid="1" gridSize="10" guides="1" tooltips="1" connect="1" arrows="1" fold="1" page="1" pageScale="1" pageWidth="827" pageHeight="1169" background="#C8FFA5" math="0" shadow="0">
      <root>
        <mxCell id="0" />
        <mxCell id="1" parent="0" />
        <mxCell id="kpx8x38Mn5n_9P3kcjEu-1" value="" style="rounded=0;whiteSpace=wrap;html=1;hachureGap=4;fontFamily=Architects Daughter;fontSource=https%3A%2F%2Ffonts.googleapis.com%2Fcss%3Ffamily%3DArchitects%2BDaughter;strokeColor=none;" vertex="1" parent="1">
          <mxGeometry x="102" y="118" width="70" height="122" as="geometry" />
        </mxCell>
        <mxCell id="BZqbb991lfNiMIulnx0U-4" value="" style="rounded=0;whiteSpace=wrap;html=1;hachureGap=4;fontFamily=ES Klarheit Kurrent RD;fillColor=#C7CFEB;strokeColor=#141419;shadow=0;glass=0;fontSize=14;" parent="1" vertex="1">
          <mxGeometry x="145" y="295" width="120" height="60" as="geometry" />
        </mxCell>
        <mxCell id="clFiod78sZzIFJFchtkz-20" value="" style="rounded=0;whiteSpace=wrap;html=1;hachureGap=4;fontFamily=ES Klarheit Kurrent RD;fillColor=#EB4B2D;strokeColor=#141419;fillStyle=auto;fontSize=14;" parent="1" vertex="1">
          <mxGeometry x="215" y="410" width="120" height="60" as="geometry" />
        </mxCell>
        <mxCell id="clFiod78sZzIFJFchtkz-1" value="AnswerQuestion" style="rounded=0;whiteSpace=wrap;html=1;hachureGap=4;fontFamily=ES Klarheit Kurrent RD;fillColor=#C7CFEB;strokeColor=#141419;fontSize=14;" parent="1" vertex="1">
          <mxGeometry x="140" y="300" width="120" height="60" as="geometry" />
        </mxCell>
        <mxCell id="clFiod78sZzIFJFchtkz-2" value="Question&lt;div&gt;Answered&lt;/div&gt;" style="rounded=0;whiteSpace=wrap;html=1;hachureGap=4;fontFamily=ES Klarheit Kurrent RD;fillColor=#EB4B2D;strokeColor=#141419;fontSize=14;" parent="1" vertex="1">
          <mxGeometry x="210" y="415" width="120" height="60" as="geometry" />
        </mxCell>
        <mxCell id="clFiod78sZzIFJFchtkz-4" value="" style="endArrow=classic;html=1;hachureGap=4;fontFamily=ES Klarheit Kurrent RD;rounded=1;curved=0;flowAnimation=0;shadow=0;fontSize=14;" parent="1" source="clFiod78sZzIFJFchtkz-1" target="clFiod78sZzIFJFchtkz-2" edge="1">
          <mxGeometry width="50" height="50" relative="1" as="geometry">
            <mxPoint y="540" as="sourcePoint" />
            <mxPoint x="50" y="490" as="targetPoint" />
          </mxGeometry>
        </mxCell>
        <mxCell id="clFiod78sZzIFJFchtkz-5" value="current question state" style="rounded=0;whiteSpace=wrap;html=1;hachureGap=4;fontFamily=ES Klarheit Kurrent RD;fillColor=#102924;strokeColor=none;labelBackgroundColor=none;fontSize=14;fontColor=#c8ffa9;" parent="1" vertex="1">
          <mxGeometry x="280" y="300" width="120" height="60" as="geometry" />
        </mxCell>
        <mxCell id="clFiod78sZzIFJFchtkz-6" value="" style="endArrow=classic;html=1;hachureGap=4;fontFamily=ES Klarheit Kurrent RD;fontSize=14;" parent="1" source="clFiod78sZzIFJFchtkz-2" target="clFiod78sZzIFJFchtkz-5" edge="1">
          <mxGeometry width="50" height="50" relative="1" as="geometry">
            <mxPoint x="130" y="600" as="sourcePoint" />
            <mxPoint x="180" y="550" as="targetPoint" />
          </mxGeometry>
        </mxCell>
        <mxCell id="clFiod78sZzIFJFchtkz-10" value="" style="endArrow=classic;html=1;rounded=0;hachureGap=4;fontFamily=ES Klarheit Kurrent RD;fontSize=14;" parent="1" source="BZqbb991lfNiMIulnx0U-1" target="kWP5bIo4fPao6hV6OUjQ-7" edge="1">
          <mxGeometry width="50" height="50" relative="1" as="geometry">
            <mxPoint x="290" y="520" as="sourcePoint" />
            <mxPoint x="380.54054054054063" y="220" as="targetPoint" />
          </mxGeometry>
        </mxCell>
        <mxCell id="clFiod78sZzIFJFchtkz-11" value="" style="endArrow=classic;html=1;rounded=0;hachureGap=4;fontFamily=ES Klarheit Kurrent RD;fontSize=14;" parent="1" source="kWP5bIo4fPao6hV6OUjQ-7" target="clFiod78sZzIFJFchtkz-1" edge="1">
          <mxGeometry width="50" height="50" relative="1" as="geometry">
            <mxPoint x="425.94594594594605" y="220" as="sourcePoint" />
            <mxPoint x="360" y="217" as="targetPoint" />
          </mxGeometry>
        </mxCell>
        <mxCell id="clFiod78sZzIFJFchtkz-28" value="Participants" style="shape=umlActor;verticalLabelPosition=bottom;verticalAlign=top;html=1;outlineConnect=0;hachureGap=4;fontFamily=ES Klarheit Kurrent RD;fontSize=14;" parent="1" vertex="1">
          <mxGeometry x="122.5" y="18.4" width="30" height="60" as="geometry" />
        </mxCell>
        <mxCell id="clFiod78sZzIFJFchtkz-32" value="" style="endArrow=classic;html=1;rounded=0;hachureGap=4;fontFamily=ES Klarheit Kurrent RD;fontSize=14;" parent="1" source="0DtwkEcFgGxIL71xsOzH-5" target="0-SrIZvd3cAVGvVJ-4VA-5" edge="1">
          <mxGeometry width="50" height="50" relative="1" as="geometry">
            <mxPoint x="1030.005" y="430" as="sourcePoint" />
            <mxPoint x="970.909090909091" y="365" as="targetPoint" />
          </mxGeometry>
        </mxCell>
        <mxCell id="clFiod78sZzIFJFchtkz-50" value="" style="endArrow=classic;html=1;rounded=0;hachureGap=4;fontFamily=ES Klarheit Kurrent RD;strokeColor=#000000;dashed=1;fontSize=14;" parent="1" edge="1">
          <mxGeometry width="50" height="50" relative="1" as="geometry">
            <mxPoint x="10" y="270" as="sourcePoint" />
            <mxPoint x="910" y="270" as="targetPoint" />
          </mxGeometry>
        </mxCell>
        <mxCell id="clFiod78sZzIFJFchtkz-52" value="Timeline" style="text;html=1;align=center;verticalAlign=middle;whiteSpace=wrap;rounded=0;fontFamily=ES Klarheit Kurrent RD;fontSize=14;" parent="1" vertex="1">
          <mxGeometry x="10" y="248" width="60" height="30" as="geometry" />
        </mxCell>
        <mxCell id="0DtwkEcFgGxIL71xsOzH-1" value="" style="verticalLabelPosition=bottom;verticalAlign=top;html=1;shadow=0;dashed=0;strokeWidth=1;shape=mxgraph.android.phone2;strokeColor=none;hachureGap=4;fontFamily=ES Klarheit Kurrent RD;fontSize=14;fillColor=#102924;" parent="1" vertex="1">
          <mxGeometry x="630" y="108" width="75" height="140" as="geometry" />
        </mxCell>
        <mxCell id="0DtwkEcFgGxIL71xsOzH-2" value="Quiz master" style="shape=umlActor;verticalLabelPosition=bottom;verticalAlign=top;html=1;outlineConnect=0;hachureGap=4;fontFamily=ES Klarheit Kurrent RD;fontSize=14;" parent="1" vertex="1">
          <mxGeometry x="652.5" y="18" width="30" height="60" as="geometry" />
        </mxCell>
        <mxCell id="0DtwkEcFgGxIL71xsOzH-4" value="QuestionClosed" style="rounded=0;whiteSpace=wrap;html=1;hachureGap=4;fontFamily=ES Klarheit Kurrent RD;fillColor=#EB4B2D;strokeColor=#141419;fontSize=14;" parent="1" vertex="1">
          <mxGeometry x="480" y="415" width="120" height="60" as="geometry" />
        </mxCell>
        <mxCell id="0DtwkEcFgGxIL71xsOzH-5" value="QuestionScored" style="rounded=0;whiteSpace=wrap;html=1;hachureGap=4;fontFamily=ES Klarheit Kurrent RD;fillColor=#EB4B2D;strokeColor=#141419;fontSize=14;" parent="1" vertex="1">
          <mxGeometry x="740" y="415" width="120" height="60" as="geometry" />
        </mxCell>
        <mxCell id="0DtwkEcFgGxIL71xsOzH-6" value="" style="endArrow=classic;html=1;rounded=0;hachureGap=4;fontFamily=ES Klarheit Kurrent RD;fontSize=14;" parent="1" source="0DtwkEcFgGxIL71xsOzH-4" target="0-SrIZvd3cAVGvVJ-4VA-2" edge="1">
          <mxGeometry width="50" height="50" relative="1" as="geometry">
            <mxPoint x="975" y="440" as="sourcePoint" />
            <mxPoint x="935.454545454545" y="365" as="targetPoint" />
          </mxGeometry>
        </mxCell>
        <mxCell id="0DtwkEcFgGxIL71xsOzH-7" value="" style="endArrow=classic;html=1;rounded=0;hachureGap=4;fontFamily=ES Klarheit Kurrent RD;fontSize=14;" parent="1" source="0-SrIZvd3cAVGvVJ-4VA-3" target="0DtwkEcFgGxIL71xsOzH-4" edge="1">
          <mxGeometry width="50" height="50" relative="1" as="geometry">
            <mxPoint x="793.6363636363631" y="365" as="sourcePoint" />
            <mxPoint x="951" y="385" as="targetPoint" />
          </mxGeometry>
        </mxCell>
        <mxCell id="0DtwkEcFgGxIL71xsOzH-8" value="" style="endArrow=classic;html=1;rounded=0;hachureGap=4;fontFamily=ES Klarheit Kurrent RD;fontSize=14;" parent="1" source="0-SrIZvd3cAVGvVJ-4VA-4" target="0DtwkEcFgGxIL71xsOzH-5" edge="1">
          <mxGeometry width="50" height="50" relative="1" as="geometry">
            <mxPoint x="829.0909090909086" y="365" as="sourcePoint" />
            <mxPoint x="827" y="440" as="targetPoint" />
          </mxGeometry>
        </mxCell>
        <mxCell id="0DtwkEcFgGxIL71xsOzH-9" value="" style="endArrow=classic;html=1;rounded=0;hachureGap=4;fontFamily=ES Klarheit Kurrent RD;fontSize=14;" parent="1" source="0DtwkEcFgGxIL71xsOzH-1" target="0-SrIZvd3cAVGvVJ-4VA-4" edge="1">
          <mxGeometry width="50" height="50" relative="1" as="geometry">
            <mxPoint x="436" y="230" as="sourcePoint" />
            <mxPoint x="766.8181818181815" y="305" as="targetPoint" />
          </mxGeometry>
        </mxCell>
        <mxCell id="0DtwkEcFgGxIL71xsOzH-10" value="" style="endArrow=classic;html=1;rounded=0;hachureGap=4;fontFamily=ES Klarheit Kurrent RD;entryX=0.083;entryY=0.965;entryDx=0;entryDy=0;entryPerimeter=0;fontSize=14;" parent="1" source="0-SrIZvd3cAVGvVJ-4VA-2" target="0DtwkEcFgGxIL71xsOzH-1" edge="1">
          <mxGeometry width="50" height="50" relative="1" as="geometry">
            <mxPoint x="650.8783783783783" y="305" as="sourcePoint" />
            <mxPoint x="391" y="230" as="targetPoint" />
          </mxGeometry>
        </mxCell>
        <mxCell id="kWP5bIo4fPao6hV6OUjQ-2" value="" style="shape=image;verticalLabelPosition=bottom;labelBackgroundColor=default;verticalAlign=top;aspect=fixed;imageAspect=0;image=data:image/png,iVBORw0KGgoAAAANSUhEUgAAAZIAAAKZCAYAAACSra2kAAABWGlDQ1BJQ0MgUHJvZmlsZQAAKJF10D1LQnEUx/GvD2WpQ/SwNUhTgYVZEo7mIEGEadHDdr2aBj5crkZEvYSIWnoFEQ0NQYMNCc3RFhRFL6DmwMXkdq5WatEfDufDj8OfwwFrj6JpWTuQy5f0WGTWs7q27nG80osVF924FbWohaLReRnhu3e+6gMWs9+Pm39lwrXgdT7wNvK0cFSxXTr/znc8ZzJVVKV/SPlUTS+BxSuObpc003viQV2WEh+aTjd9YjrR9FVjZikWFt+J+9SMkhS/iL2Jtjzd5lx2S/3awdzencovx81/pIaJEsHPDItMEiAmDv0zP92YD1NAYwedTdJkKOEhJIlGlpR4jjwqE3jFfnxS0+adf9+vle3uQ/AMrP2tLC67XxzAwHkrG3XA0C1UCpqiKz9XtVTtxY0pf9OuMnQdG8b7CjjGoP5oGLWyYdRPwfYMN9VPcyBiLSwS50AAAAA4ZVhJZk1NACoAAAAIAAGHaQAEAAAAAQAAABoAAAAAAAKgAgAEAAAAAQAAAZKgAwAEAAAAAQAAApkAAAAAZ0HN7gAAQABJREFUeAHsnQd8FEUbxl9I6L333ovU0HvvvaOAotJBUZp+ShOlC4KA2BAQEFS6gHREUZDee++9E2q+fQbncne5Sy6Xu+TKM7/fZWdnZ2Zn/rOZZ2fe2d1YQUFBIcHBj8X1LsT1WTJHEiABEiABFxCI5YI8QrMI1N4rwfe1l1sSIAESIAEScJhAbIdjMiIJkAAJkAAJ2CBAIbEBhUEkQAIkQAKOE6CQOM6KMUmABEiABGwQoJDYgMIgEiABEiABxwlQSBxnxZgkQAIkQAI2CFBIbEBhEAmQAAmQgOMEKCSOs2JMEiABEiABGwQoJDagMIgESIAESMBxAhQSx1kxJgmQAAmQgA0CFBIbUBhEAiRAAiTgOAEKieOsGJMESIAESMAGAQqJDSgMIgESIAEScJwAhcRxVoxJAiRAAiRggwCFxAYUBpEACZAACThOgELiOCvGJAESIAESsEGAQmIDCoNIgARIgAQcJ0AhcZwVY5IACZAACdggQCGxAYVBJEACJEACjhMwfWrX8SSMSQIkQAIk4A4Cr5TJLu37VJZXSmcPN/uGeYaHezy6D/4nJCFuOW/OAuklXZbkcunsLTl9+IpbzuGKTHMXziBpMiaTg9vPyp2bD21mmTpDUilZKZekyZRcXjx/IVfP35btm47L7RsPbMZ3JNAdeerz5i2SSVKlTyL/bjgmz54+18HckgAJeDABR0TEE4vv1hHJgC9aSOYcqeT8yevSrc5UT6y/KlPjTmWketMi8r+Os2XP36csypk4WXzpObyhVKhTQGIHxLI4hg565bwd8vWIVRISCS12R54WBTN2WrxdTirULSivlhlnVxyt03CfBEggZgnokYinjTgiouI2ISlQIosSkWP7LkqeVzIKhmz7tp6OqDwedTxFmsQydv4bkj5LCjm8+7wsmfGPnDx0RRImiWeMTnJLxXoFpVHH0hIrViz5avhKh8rujjxtnfj4gcsSN34cjkZswWEYCZCASwm4TUhqtyouIS9C5MuPlsvExV2kfvsgrxOS3p82VCKydOZW+XbkamNKK3TYcWzvRVn8/d8y+qc3pGGHUnL31kOZO3lThI3jjjxtnfTnr/60FcwwEiABHyTQvk8VVau5kyLug9xRfbcISfyEcaVS/YJyfP8lOXHwshzacVbK1c4vuBu/de2+qR5JkiWQ0jXyKpvDxmX7lfDog5mMKbH8xTPLtYt3ZO8/p3WwJE+VSMrUzCdZcqaWO0bnjXPs+vOE6Tg8mDoqUyOfHN51Xp2vhGHbyFMko9y+/kB2/XXSIXsNbAylq+WVS2duyvej11qIiD5Z8KOnMuztefLF4rcNA1kV2bBkr7IH6ePW26jmWa3JK3LvTrBs33jMImvYd4qUzS5H91yQcyeuq2OFS2eTdJmTy+bfDsiTx8+kWPmcymZikdBsB+2yc7MlR7PD9JIACXgoAWWg7/1SSFDEmBATtwgJpnwgJn+uPKjQb1i6TwoGZRWMUuZP3Wxqjnt3HqnpoVJV80gyQyAWf/+POhYvQRwZPL2tYahPIQPazDDFr9r4Fek+tL4kMqaWYBTHNjBOgBKSzwcsMYlU6gzJpO/oJvLTlD+kvGHbyJo7jTx79kICA2PLc8NQPm3oCln1005TvrY8VRoVVsELv/s73Omhm1fvyTbDoF2ndXGp1KCQLJhmfyQQ1Tz7fNZYTh2+HEZIsFgA9f16xO8mIWlkjJJgI4HoQEiavVlWSlbObauqKgy2IQqJXTw8QAIeSwAmA8yGtDfEBD+46BYTtzxHUrtlMXUHv964Q4f747+74jqtS0is2JYG6y8GLVUrnzr2rS4ZsqVU8bv8r45gRDJr/Do5uveCCoMYvDOysZpCerfZN8qI3LLoKAWweMVcgikja9emR2U5e+ya9Gv9vbQo/JmM6D5fjXpe71dTIFbhuZwF0qnD+g4/vLgnDlxSh3PkTx9eNHFHnuGe0OzgZ71+llbFRln8OlWcIJfP3RKMrDDqoiMBEvBOAhAOPbWuBOW/qa7oqo3LRyRYpYXRB+6E9TTWg7vB8s+aI1K5YSEpVSWPcQd/1FQ/LJ+d9OEyNQLp9UkDWTZrm9RpU0J2/HFcFhmjAe069asuceIGyMSBS9R0FsKxagoAcxfKIKWr5xVM5+zfdkYnUdNi495fZBpR/LP2iOCHERNEK7wlySnTJlH5XDaWLkfkThrTd3Cp0iYON6o78gz3hGYHHxtiYe7ixg+UD6e0lnTGcuZPey4QLYbmcegnARLwDALLjw2OVEGie2Ti8hFJTWM0Ard24R6Liq9duFvt129f0iIcO9vWH5WVP+2QouVyyICJLZQATTCmqsyX1OJu//qlu3LAeNbD2sE2AYfVYebu+IGLJhHR4Vcu3FbehInj6SCb26dPXj57ET+CkQsSo1OGu3v7kdra++OOPO2dK7xwjAr7j28u+Ypmku9Gr1HiGl58HiMBEiCB8Ai4dEQSEBBbqjcrqs73tjE99eagWqZz6yktzNPjLlh36DrCdyPXSDXDBgLbygxjxZH5g37oqGFQhtHelrt64Y4Kzvjf1JiOc+ta2IcFnxr2ArjYxpLd8Nz1y3cle760auRy/tSN8KJKZsPwD3fm6NVw47kjz3BPaOfgWx/UVosf8AyMtkvZicpgEiABDyDgyHMlWPBjGokYNpPotJO4dEQCkUhprMyCXeLQznNyxFhFpH9YQYVnSiAodduWCNM0MFZDRDAKaf5mOWVI15EwhfX82XOJZxy35RIkejm6gFHZ3GH5sbNOP5iI6bKIXP5imVUU1Ds854o8Y0lYAUyQyDYXW2VpbDz30uT1MmqBwlfDHHv2xVY+DCMBEvAcAjEpIqDgUiGp3erltNY0o4Ma1eeXML8xfRcq8rWM1VtYbaVdtrxp5fX+NZUAffnRMjX6wOos7fD8BozCGbKmUHYSHa63WXO/HBFc/W/aSodHZbvJWI78JPiZeuAQoyFzh7Lhafi48QKlYMksgmW5mHb712pZrnka+KOaJ4QyjnFOa5ch68tFCtbh1vtla+UXjBQheCN7/6JWsFnH4T4JkIB3ETBf/guDe3SORDQplwkJnu8IMp67wHMf+7ed1vlbbPFMBozhiFu+Tn51DAb0/uObCabFJhiG9N8X7FIdMpb6wjiv3d+GsR52jYYdSusgtcXqqyZvlFWrsbauCzXiW0RyYgfLej/r/bPxWpTYaiGAnr5CVihr54E15dv1vaX/583VKGuy8eDlw/uPwz1TVPPEQ4+YvsM7urTDaKS88YwOXHizdXiGBZxvGYsbhr49N8Ky6vy5JQES8GwCevlvTIkI6IS9vXWSWTXjXVV4TmOj8cyIuZHcOrvVP+9Sq6vwpPsfyw9Ix/eqS/b86QRPYmPqCw5Pw09d2UN6DmsgB3ecU3f7eP4ENpTOA2tJGqMjxQsTk6VMaLxTqoKkNUYMEwYtUaMW6/NFZR8rzyYOWCzvG4ZpPHSIRQF4wPLapTuqrHgNDNwV4wWOpxx8KWVU8sRzOa26VlDCBvtGnLiBUqOZwd1sdGervhCbwV+3VUuekUe1JkVsjmwWTNusRmG28mAYCZCA5xKIiVGIOQ2XCUmt/1ZrbViyzzz/MP6/fj8k3YbUk8KlskmtFsWkaedyaqpFr4FGghtX7sm3n/2unht5b0xT42WKsyT44RN5p+nX0mNYfWnwWik1tQQbCDr28f0XKwELczIXBOCJ+4cPnkjLLhXUA4d46BAOYomn5DHCamSMkr5Z20sWG+/i+vGLjRZP6NsqgrN5zvtykyRNkVBqtihqvEiygXrIcuvaw8b68T9kym/d7Ao4RnIYBcLVaP5yMYStcuGVL5jOoyMBEiCByBCIFRQUFBIcHCxXgsOucIpMRtEZF3fgeGARq6DwjEp0uURJ46sVZ3g6HvaYR4bAwOGOv02PSmo57QevzYpUcZzJE7aZjNlTykVjqpAdf6RwMzIJeDSBkXM6RvgtElTAkVVc0VlRrxSS6AQUmXPhNfPmL3aMTFp7cd2Rp71zMZwESCBmCXjrh60oJDF73fDsJEACJOD1BFy2asvrSbACJEACJEACThGgkDiFjYlIgARIgAQ0AQqJJsEtCZAACZCAUwQoJE5hYyISIAESIAFNgEKiSXBLAiRAAiTgFAEKiVPYmIgESIAESEAToJBoEtySAAmQAAk4RYBC4hQ2JiIBEiABEtAEKCSaBLckQAIkQAJOEaCQOIWNiUiABEiABDQBCokmwS0JkAAJkIBTBCgkTmFjIhIgARIgAU2AQqJJcEsCJEACJOAUAQqJU9iYiARIgARIQBOgkGgS3JIACZAACThFgELiFDYmIgESIAES0AQoJJoEtyRAAiRAAk4RoJA4hY2JSIAESIAENIFA7dm8fKU8fPhQ/Z48eSLPnz+XFy9eSEhIiPrpeNgijI4ESIAESMB3CcSKFcuictjHL3bs2BIQECBx48aVhAkTqp9JSOLFi6eEAxHjxImjhAS5QEzgKB4KA/+QAAmQgN8R0KICEYHTQgLdwM9CSBA5MDBQHcCIxHo0QjHxu+uHFSYBEvBzAlpEgAF+/CAk0AqMSvAzCQl2dASMQuxNa5kzpbCY06CfBEiABLyfgLlwWNdGCwlGJvhBTDCDZRIS7OCA+bSW9YjEOlPukwAJkAAJ+A8BLSSoMUYl0Aw1OtEIICAIgHjYG41wBKJpcUsCJEAC/kHAeoSixQQiAr8amWgUGKJoAUEYRyOaDLckQAIkQAKagBYS7IcREgRgRAKnRx56qwL5hwRIgARIwO8JQCvg9BZ+k40EwxPtKCCaBLckQAIkQAK2CNgUEvNAcz8yoLDYwsgwEiABEvAfAta6YF5z04gEkewJRngZmGdGPwmQAAmQgH8RgD6YhARVd0Qw7ImNf6FjbUmABEjA9wk4ogmgYCEkjmBxNGNH8mIcEiABEiAB7ycQamH3/rqwBiRAAiRAAjFAgEISA9B5ShIgARLwJQIUEl9qTdaFBEiABGKAAIUkBqDzlCRAAiTgSwQoJL7UmqwLCZAACcQAAQpJDEDnKUmABEjAlwhQSHypNVkXEiABEogBAhSSGIDOU5IACZCALxGgkPhSa7IuJEACJBADBCgkMQCdpyQBEiABXyJAIfGl1mRdSIAESCAGCFBIYgA6T0kCJEACvkSAQuJLrcm6kAAJkEAMEKCQxAB0npIESIAEfIlApF8j70uVj2xdHj56KLWaNgnzAbCypUrJ55+OjGx2jE8CJEACPkGAQhKJZjx05IgcO3lCerz5liRKmMiUMke2bCY/PSRAAiTgbwQoJJFo8QOHDxsCklCGDPzAoa9JRiJrRiUBEiABryVAG0kkmu7gkcNSqEABJSL85HAkwDEqCZCATxOgkESieQ8aI5I4gXHknUEDJE/JYlKiSkWZ+u03YWwmkciSUUmABEjA6wlQSCLRhBiR7Ny7RzKkSy+DBwyStKnTyNDRI2XitKmRyIVRSYAESMC3CMQKCgoKCQ4Oln379vlWzVxcm2fPn8svSxZJ7hw5Jah4CVPuTdq3lV379sqx7bskXrx4pnB6SIAESMBfCHBE4mBLBwYESNvmLS1EBEkb16svEOLjp046mBOjkQAJkIBvEaCQONiejx49kgOHDwmeJTF3iRO9XAYcOxZRmnOhnwRIwH8IRHvvN2DAAMHP2tkLt44XU/unzpyRao0ayHezZ1kU4bfVvwvEJGf27Bbh3CEBEiABfyEQrc+RrFmzRnGtVauWBV974RaRYninQL58UrxIEflm5kwpXKCgFClUWGb+NFfWb/5D3u3eg/aRGG4fnp4ESCDmCESrkMRcNaN+5lixYsn3X06Tdz8YKG06v64yxMOJ7/XsJX2794z6CZgDCZAACXgpgWgVEnsjD3vhnsY0U4YM8vMPs+TO3bty89YtyZYli8SOHe2zg56GheUhARLwcwJuXf5ryxYSGd5jxoyJTHTGJQESIAESiAECbrud1qMMZ+tkbUdxNh+mIwESIAEScC8Bt45IzIsOYcEPAmEuEvbCzdPSTwIkQAIk4LkE3DYisa6yHqGYiwji2Au3Ts99EiABEiABzyQQbULimdVnqUiABEiABKJKIFqExN6ow154VCvF9CRAAiRAAtFHwC02EgiEFglnqmJtR3EmD6YhARIgARKIHgJuGZFERURQbWs7SvSg4FlIgARIgAScIeCWEYl1QfTzJNbPhdgLt07PfRIgARIgAc8l4JYRiXl19ejEepRhL9w8Lf0kQAIkQAKeT8DtQuL5CDyzhC9evIjxT/iiDFeuXJGHDy1fne9JxDyBkyfxYFlIICYIuF1I7I087IXHBARPPOfw4cPlzz//jLGiQUD69esnw4YNk9WrV8dYOaxPfPXqVdmyZYsp+NNPP5XNmzeb9ukhARKIfgJuf2mjtV1EV9FeuD7ObcwS+PfffyVlypQycOBAiRMnTswWxuzsELXnxmePy5cvr0KbN28uadOmNYtBLwmQQHQTcLuQRHeF3HU+TO+MGzdO2rVrJz///LPgzjhv3rzSsWNHSZw4sezfv1/Wr18vffr0MRXhp59+kjRp0kiNGjVk5cqVqkPGnf6uXbskVapU0qlTJzl37pwsX75cfc+kbt26EhQUZEp/48YNdc7z589L7ty5pUOHDpIsWTJ1HOWZP3++HDhwQOLGjSvlypWThg0bCl53j7Bt27apcmHbunVrKVWqlClfeJ4+fSrLli1T8Z48eSIFCxaUtm3bqjRLly6VP/74Q8UZOXKk9O3bV5IkSWKR/pbx9uMFCxbIkSNHJGvWrFK2bFk5ePCgdO7cOUIWyGj37t3q/NevX5csxluU27dvLxkzZlTnOHHihKrbpUuXJHXq1IpfxYoVZdOmTbJz50415Xfv3j3p1auXGrWVLFlScQ6vThG1H6bIUJ/t27er/MEbZdK8LSrPHRIgAQsCbp/asjibF++EhITIhQsXZM6cOVKpUiV566235Izx1UR0unDoqC5fvmxRQwjBXeOV83B37tyRJUuWqNfOv/nmmxJgfAN+0qRJqnNs1aqVFC5cWCA8OI92mP7LmTOndO3aVdBxTp48WR+SadOmqfO9/vrrAgHCNNhvv/2mjuOzwOioT506JVWrVpV06dKZ0mkPyvLPP/+otBA0dNooD84PUYKwoIN/7bXXJEGCBDqZ2mJE8PXXXwvO88477yiRmjt3rly7dk0dj4jF0aNHVfpixYop4UVnPXbsWMUQ5//qq68kn/EhsUGDBkmVKlVk9uzZAjEtYnxYDB08mDRp0kSdC4KO88GFV6eI2g/89u7dK2ibnj17Kt6oEx0JkEDEBDgiiZiRRYwGDRqY7u5xl4y7f0cdOkzc9WPUAGGZMWOGuoPHyAYdN0Yt6DDRgcOhM8XUDVymTJlUx3ry5Em1j874o48+MsXFqGTevHmC8sEFBwcrscP0lLV7/PixrFu3Ttq0aaOEBscRb8SIEXLo0CFVluTJk6s80Glbu9OnT6tyYnoSIpMtWzZlt4DAOOJWrVqlhLNRo0Yqeq5cueR///ufEkMIB0Qzf/78qs6od4oUKdRICWVKmjSpmtrSjPT5IqoTyghnr/0ggmCQJ08eCQwMFAg0bgToSIAEIiZAIYmYkUWMDMbHrbRDp4ZpIUcdRgYQETh0ivgoFjpROHResEU8ePBA7eNPgQIFTH6cCx0dRg64u0b8DRs2mI5jdADxwJQTXPz48VV8UwQzD+7iMZVjnn/mzJlVJ438IWrhOYzMMGVnPlKBGEKEHHFIj7rMmjXLIjrOHS9ePCldurQafWXPnl1N9WG6D7zCcxHVSQuJvfbDOTGdh2ebihYtqs5rzie8c/MYCfg7AQpJJK8Ac8OzFgWdBTp4c2d9h27e8SIeprfws+es7RKwAUAAcPeNEQg6Y3OHu3edn/W5zOMhPVyiRIlMwagL7vwdcUiPspg767ThsYDgYXRmXn5Mp+kpOIwGMO21Y8cONXWI6cPevXur0YL5Oc39jtbJXvthhDN48GA1soINCyvDMJWGaS46EiCB8AlQSMLn4/BRjBB0Z6YT3bx50zT1pMMis7148aIpOu64b9++rYzPGAXBLoDOF0Z7OBzDdJe5OJgSW3lgwIY7fPiwybj/7NkzZeOAGEXksEpKl0ePFI4dO2ZKFhELPZrB4gDtYJ+AsGBEtmfPHmW8L1GihGI6ceJE1bFj2smei2qdUH6UG9Nt+MGoP336dDW9pRnbOzfDScDfCdDY7qIrAJ0NOkGs3sLdOAzZML5b35lH5nRYQYSpKkxbwa6ADhx2E0y5oAPHqivYEyAsMAwjPjrDiBzSYvpq48aNShBQbqxEQ1qswIrIFSpUSHX6sOlgdIFVVlixpV1ELCCAuOvHVBj4QABhYMcIDiMtGM0xzYRjGIGhfnr0ghEFBFob2PU5o1onrJ6bOXOm4ok8US+cC1OKdCRAAuETiLjXCT89j/5HAHPwMBR/+eWXqgOC7QNLYq2nvyIDDB32J598IhgtYCqoS5cuyq6CzrZ79+7yww8/KAM89mEUf/XVVx3OHsuWkX7IkCGqvBCp9957TxImTBhhHhCcbt26yTfffCN///23EiDUF6IGFxELrCSDGIAVyo7l0y1atFDpkB4LErAkGlNaGOVhRVvNmjVxSE03/fXXX6reX3zxhQrTf8Krk7ntScc331auXFmOHz+ueCAc9iuszDOfCjOPTz8JkEAogWh5aWPo6Xzfh44PHb8jU0yO0MAdOZYQ6ykk6zTovGGgRofsjMOdN0YCzpYXU2q4a8czNLBp4AFG7SJigfOi/Pbqdv/+fVU3684cTGCjQb1tuajUKSLets7HMBLwdwIckbj4CkDnZq+Dc+ZUuDO219EiP2uDfGTPgdVdUXHhlS0iFlgYEF56jFRsOTAJj3FU6hQRb1vlYRgJ+DsB2kj8/QpwUf0x9Wa+tNZF2TIbEiABLyDAqS0vaCQWkQRIgAQ8mQBHJJ7cOiwbCZAACXgBAQqJFzQSi0gCJEACnkyAQuLJrcOykQAJkIAXEKCQeEEjsYgkQAIk4MkEKCSe3DosGwmQAAl4AQEKiRc0EotIAiRAAp5MgELiya3DspEACZCAFxCgkHhBI7GIJEACJODJBCgkntw6LBsJkAAJeAEBCokXNBKLSAIkQAKeTIBC4smtw7KRAAmQgBcQoJB4QSOxiCRAAiTgyQQoJJ7cOiwbCZAACXgBAQqJFzQSi0gCJEACnkyAQuLJrcOykQAJkIAXEKCQeEEjsYgkQAIk4MkEKCSe3DosGwmQAAl4AQEKiRc0EotIAiRAAp5MgELiya3DspEACZCAFxCgkHhBI7GIJEACJODJBCgkntw6LBsJkAAJeAEBCokXNBKLSAIkQAKeTIBC4smtw7KRAAmQgBcQoJB4QSOxiCRAAiTgyQQoJJ7cOiwbCZAACXgBAQqJFzQSi0gCJEACnkyAQuLJrcOykQAJkIAXEKCQeEEjsYgkQAIk4MkEKCSe3DosGwmQAAl4AQEKiRc0EotIAiRAAp5MgELiya3DspEACZCAFxCgkHhBI7GIJEACJODJBCgkntw6LBsJkAAJeAEBCkkUGunx48dy/sIFefb8eRRyYVISIAES8G4CFBIn2m/a999Jo3atJVeJolKiaiXJ/kpB6fvhILlz964TucVckpVrVsupM2dirgA8MwmQgE8QoJBEshlHjBsjn30+Tgrmyy8zpkyT339dLO906yHLVq2Ujz79JJK5xVz0Q0eOSKce3eTWndsxVwiemQRIwCcIBPpELaKpErN+mieTpn8ln308RN7q2Ml01uJFikjqVKlk4NDB0qxBQ6leuYrpmKd6XoS8UEWLJbE8tYgsFwmQgJcQ4IgkEg21wpgKKlG0mLzZoWOYVJ3atZfhH34kadOkMR07fuqkdOj6tuQrVVKKVSovfQYOkNt37piO/7J0iXTr+45s+utPqd+6pYr3Vp9e8uDhQ/l9/Tqp1ayxlKhSUUZPnKDCkBB5InzH7l3S9NV2kjeouBpZbN2+3ZTvwcOHVRzraavWb3QSiOHho0el67vvqPi9+r8vYyd/YUo795efpUaTRpKjaGGp06KpKofpoOFp2LaVrFq3Vuq1aiGla1SVdZs2mh+mnwRIwA8JUEgi0ei79+2VoGLFJVassHfxsWPHlm5vdJbCBQqqHG/cvCkNWrWUy1evyKghQ2XAO31l899/SX2jA37y9KmKc/3GDVm/+Q95Z9AAqVezpnRs21Z13O3efEM+GDZE6tSoKe1atJIJ06bIyrVrVJpHjx7Jnv37pf1bb0qFsmXV9FqcwEDp2K2LXLh0ScV5+OihihMcHKz29Z+DRw7LlWtXJU3q1NK0YUMV3KR+A6lcroLyT/3uW3n/ow8lV44c8uXY8UZdS6h8V6z+XWch+w4elIFDBktAQGzJnTOnpEub1nSMHhIgAf8kwKktB9sdq7Nu3rqlOllHkoz+YoIYiiOLfpwniRMlUklKlSghlerVkVnz5pqmxjBCmfDZKGlQu46KA9vF6g3rZfb0b6RO9RoqbMee3bLWCGvZuInp1M0bN5b+vV+OKsqVKi3l69RUI5dJo8eY4tjzpEqZ0hCuWjLmi4lSq1p1wdTc3Xv35PMpk6Vlk6YyefRYlRRlgvAMHzta6v9XPhxA+qVz5wvEk44ESIAE2BM4eA3Ejx9fxcTdviNu1949apShRQRp8uTMZXTaRWXbzh0WWUAItCuQL5/EjRtXKpUrp4MkvXHXf/LMadM+POaigg69rjF62XfwgEWcyOzsP3RQiUnxV4qo0QxGPfjly51HTp4+rURU51e2VCmKiIbBLQmQgHjkiGTNmpfTOLVq1fKYJoIxHfaPYydO2C0TprNwtw539tx5qVmlWpi4GdOnl0tXLpvC48aJIylTpDDtB8QOkNRGHgkTJDSFBRpTV9YuQ/oMFkGYrrIWG4sIEeycO39exRhkTKnZcmeN47qcmTJYnttWfIaRAAn4D4GwPVQM1/2E0VF7opAAS6H8BdRdekhISBg7CWwXlerXkVcKFpL53/8gKVIkl9t3Qw3rGuut27clW5aselcCbIiE6WA4nvsP7lscRb5ZMmayCNO2GASizMrQH2IRxbSTLFky5V82b4EUKVTIFK498eLF017DPuJxl42pbPSQAAlEPwGPm9rKlSuXiYIWFFNADHtea91GDhw+JF9+Mz1MSb77cZbAeF6zalV1LK8xJbRl21bVgevI9+7fl70H9kvBvPl0kNPb7bt2WaT9Z/u/UqhAARWWKOFLm8xts2dEzpw7J0+ePDGl0ct+Q/5bBpw3V251DCuyEiRIYPotWfmb9Bv8kTx79syUlh4SIAESMCfg9lvLC4aReu3atXLUWHIKlzdvXqlprFDKlMny7hmioaeysMU+fjmNlUHm4mJe+Oj2N6pbT7q+3llGfj5eMI1V47+pq4XLlsjC5cskqHgJ6dS2vSrWO127qSWyw8eMlne79xC8TgXTRrB/NKjz0rAelfKjDFitVa9Wbflh7o9qpPTJhx+rLLNlzSJJEieWidOmStbMWYylww/UMy6YRtMuUaKXU2drN26UZEmTqUUEjevVFyz/zZo5szRr2MjIc598OHyYWu6MctORAAmQgC0Cbh2RQESmTp0qBw4ckKfGklf84EcYjmmnRQNbOC0o8J88eRIbj3GDBw5ST7Jv27lT2nbuJC06vio/L14krZs2lzlff6OEAoUtaSwT/nbSl/LzkkXqWY+ixnMkF43lub/O/NFiasvZijWsW1f6D/5YchZ7RWbP/0m++nyiWn2F/GBfwUowGNDL1KwmDdq0Uqu08AyMfv4wS6bMUqtqNRlvrNTq9/H/VDHGj/jMWMVVTf73yTBV5l79+ylBeb9nb2eLyXQkQAJ+QCBWUFBQCJ432Ldvn8urO3PmTCUctjIuZMzDd+r08unw6dOnC2wjcGPGvFy+qsMgKubCYiuvmArDCq4rV69JFuMOPjAgwG4xLl6+rEYIGCVE1WFlFh4YxKtZXjEYXrl6VewZv1+8eCHnL16QjBky2i3f/QcPBCMV8xEHbCuXjQUBEBtbz8xEtQ5MTwIk4FsE3Doi0dNZtpCZH8P0lXZaUHSYHqXo4560xZ1/jmzZ7HbSuqxYqeUKEdH56S3Ey56IIA6WBWNqKzyRw/JkcxFBOggL0lFEQIOOBEggIgJuFZKITq6Pa9HQ+9h62pSWednoJwESIAESCCXgViGBYd2eMz8GY7x21oZ1630dz1+3WF21aflKKRAOW39lw3qTAAnEDAG3CglWZ8UxWymkq4gwHNNOj0jMbSHWU1w6rr9v8TwHnn7XT9r7Ow/WnwRIIOYJuHX5L5b49ujRI8LlvxAQiIkefZjbRbTIxDwqloAESIAESMAWAbcKCU4IMdGrs2wVQIdpEcG+FhKEmYfruNySAAmQAAl4DgG3Tm05U00tIkhrPv3lTF5MQwIkQAIk4H4Cbh2RQBSw+krbO1AdPcLAlJX5dJauqrmdRMfVx7glARIgARLwPAIufyARogHxMB9ZhFdtiAVGHhSN8CjxGAmQAAl4LgGXjkggIngiPTIOafDDSMR8NBKZPBiXBEiABEgg5gi41EZi/jxIZKvk6AgmsvkyPgmQAAmQgHsJuFRIMLKg820CV413e23ZssW3K8nakQAJRIqAS4UkUmdmZK8ksHr1ajl27JhXlp2FJgEScA8Bl9pI9Jt73VPUmM/1hvHhqoULF8qhQ4ckg/G52QoVKsgu4wNTPXv2VIXbb3zjfNmyZXLZeNtvwoQJpVixYtKiRQvBp3JXrlypnvK/cuWKSpPK+HQvnq85Z3xwavny5YIn1usar4Y33sas8sIXDVesWKHu/vH1RbwtuV27dipfaxIPHz6UcePGSevWrVX5bt26JeXLl5c6xndPfvjhB7X4oUiRItKsWTNJkiSJ+tgWphL//vtvuX79uqQ0Pu2LBQ+VKlVSWWNkOX/+fLlkvPY+tfEJ3xo1akjFihVl06ZNstN4fT7Kdu/ePenVq5fy2yvnA+PNwuPHj1f1WrBggZQpU0ZatWplXXzukwAJeDmBgIwZMw7F1+/wBDqdfQJ4JfuXX36pvqmCDv358+eydOlSQXg14xse6HTHjh2rOt2mTZuqzvm3336TNMZ33rNkySI7duxQK9myZs0q9evXV3f1G42PSmGqqEmTJkpk0CFjwQHeuou0f/zxhzRo0ECJAjpwiBYEwtrhy4e//PKLnDp1SuWV2Xit/eLFi1V8CBBEYv369eq1Kjly5JDNmzerskN4cAxCBQEsV66c+jLiyJEjlQi2bdtWCc+cOXOkePHiqh4XL16U5MmTC+qIz/OGV058nuDXX39VwgqRwsOpxvVmXXzukwAJeDkBl45IvJxFuMXHa++xrHnUqFHG99hTSP78+eX8+fPqjh4J0Rk3btxYateurfJBZ75t2zbBCEQ7dLzonCEUd+7ckRkzZkjnzp3VVyMLFiyoRi3IE50tppCQnx4lIOyDDz6Q06dPS/bs2XWWFlsIVNGiRVUYFj6gw2/YsKHax0gHIymIHt7T9eqrr0qJEiXUMYyu/vzzT1XWxMY3UzDaQP3Q8eOH+iIc+SVNmlSJKMQRYhpeOTHSgcNIq2zZssrPPyRAAr5HgELiYJvii47p0qVTnapOgs4fowY4PFyJDnn79u1y9uxZNTrAFiMA7ZBef+MDnTK+F6Kfn8H0F15miekgTKHh07zHjx8XjAC0w3FMm9kTkvTGd0+0Q/7mb1jGVBumwOBKly6tzvHXX3/JmTNnlDhBFDAyxRQbjk+ePFmdBwKEH/KzdhGVUwsJuNCRAAn4LgEKiYNtixEH7srNHUYY2qHDh50ikfGhKNzNV6lSRdkP9HFsEyRIYL4rAcaHqfCzdhARONhRzNPgzj5t2rTW0U375nERaP3BKh3xn3/+kdmzZ6upqnzGm4QxTYXPH2v3+uuvq6ktTMdh+g6/3r17S548eXQUtXW0nBAxOhIgAd8loITEsJ3SRUAAd/sbNmxQd+0YPcBZf3ce01l9+/Y1jTpg84BhOrIOAgKH/GC3gIMtBlNl+pgKdPIPhAGi1KhRI5UDRkFPjc/roqzw79mzR01FYeoLYjFx4kRl9LcWEl0Wd5XTyeoxGQmQQDQT4PJfB4FjBRYEBN+hh2EdU1owlmuHkQg6XXT4cHjWAqMUTBdF1ukVXxAunAt5/v7777Jo0SI19RTZ/KzjY2QFQzgcprSwEg0OYoJRzJIlS1T9ICw4N4z5epoK02s3b95U02TuLqcqFP+QAAl4PAFObTnYRBCRd999V7CCCQZ3GL+xnFU/U1G1alVljO/Xr58SnNy5cwvCsLzXGQdjOERr2LBhanoLU1qYcnLFB61gxMdyXNhzIHSVK1dW01YYYcEeggUBWJKMkQvEsXDhwmp1F+qBZcSwrQwaNEi++OILZbS3V04IEB0JkIDvE1AvbXz0KFj279/n+7WNQg2xygojjAIFCphyQUeLlVwQGO3u37+v7urt2Sd0PEe36MjR2WPE42p3+/ZttQoLRn9bDnWB8R2jEHOHUQpGLzimnTvLqc/BLQmQgGcSsN2DeGZZY7RU6MwnTZqkvvZ47do19WDeunXrwixrxbSRq0QEFUZn7Q4RQd565Rj8thzqYi0iiAfhMRcRhLmznMifjgRIwHMJcEQSibY5cOCAYMUTluViqglTW7YeEIxEloxKAiRAAl5PgDaSSDQhnhLHj44ESIAESCCUAKe2QlnQRwIkQAIk4AQBCokT0JiEBEiABEgglACFJJQFfSRAAiRAAk4QoJA4AY1JSIAESIAEQglQSEJZ0EcCJEACJOAEAQqJE9CYhARIgARIIJQAhSSUBX0kQAIkQAJOEKCQOAGNSUiABEiABEIJUEhCWdBHAiRAAiTgBAEKiRPQmIQESIAESCCUAIUklAV9JEACJEACThCgkDgBjUlIgARIgARCCVBIQlnQRwIkQAIk4AQBCokT0JiEBEiABEgglACFJJQFfSRAAiRAAk4QoJA4AY1JSIAESIAEQglQSEJZ0EcCJEACJOAEAQqJE9CYhARIgARIIJQAhSSUBX0kQAIkQAJOEKCQOAGNSUiABEiABEIJUEhCWdBHAiRAAiTgBAEKiRPQmIQESIAESCCUAIUklAV9JEACJEACThCgkDgBjUlIgARIgARCCVBIQlnQRwIkQAIk4AQBCokT0JiEBEiABEgglACFJJQFfSRAAiRAAk4QoJA4AY1JSIAESIAEQglQSEJZ0EcCJEACJOAEAQqJE9CYhARIgARIIJQAhSSUBX0kQAIkQAJOEKCQOAGNSUiABEiABEIJUEhCWdBHAiRAAiTgBAEKiRPQmIQESIAESCCUAIUklAV9JEACJEACThAIdCINk5CAhISEkIIPE4gVK5YP145VczUBComrifpwftbiYb3vw1X3q6pBRMzblqLiV83vVGUpJE5h869EulOxt9U09HG9z613ELAWCr2vt7oW1vs6nFsSoJDwGrBLQAuD+RZ+/UNCc791RjqddTj3Y5aAPUFAuD6m/XrfvMS2wsyP0+9/BCgk/tfmEdZYC4D5Fv4XL14o4Xj8+LGs27RRtu7YIQcOH5Iz58/JzVu35MmTJxHmzQieRyBu3LiSMkUKyZY5ixTKX0DKlCwpNapUlXjx4ilhiR07tklgzEtPQTGn4d/+WEFBQSGPHgXL/v37/JsEa68IWIuHuYDs3LNbfvx5gSxZ8RtFw8evF4hLk/oN5LVWraVE0WIWgqJHK0BAMfHxC8HB6lFIHATlD9HMRUSPPrA9deaMjJ8yWQmIP3BgHS0JQFDe79lbcmTLJnp0oreISTGx5OWPe3yOxB9b3UadrUUEAvL8+XOZ9dM8qdmsMUXEBjN/CcIIFNcArgVcE7g29I0GGOhrx194sJ5hCdBGEpaJ34XojgBb3Uk8e/ZMho0eKTPmzvE7HqxwWAKwf/1vxHA5fvKEDBn4gQQGvuw69MgE1w5HJmG5+UsIhcRfWtpOPe2JSL+PP5Jfli62k4rB/koANxb37j+QcZ+MoJj460Vgo96c2rIBxd+CrEciQ42RCEXE364Cx+uLawPXCEategSrb0gcz4UxfYkAhcSXWjOSdcE/v/kP898/LpgvP3A6K5Ik/S86rhFcK7hmzK8hCor/XQuoMYXEP9vdotb450eHcOrMaRk+ZrTFMe6QgD0CuFZwzWgxsReP4b5PgELi+21ss4bmd5GYnkBnMH7Kl/LkKR8qtAmMgWEI4FrBNYNrR6/i0tdVmMgM8GkCFBKfbt6IK4d/fHQCeNhw2aqVESdgDBIwI4BrBteOFhKzQ/T6EQEKiR81tq6qvmvUIoI7yjnGE+t0JOAMAVw7HJU4Q8530lBIfKctI10TLSQPHz2S5b+vinR66wQV6xUU/Nzp8JmMdJmTS6Kk8cOcJjAwtrEk1fYvIMDyUkc8W5/ciBU7Vpg8rE9kK475eXE8Ihc3fqCkz5JCIoobOyCWWJcdeaPsOKetY+r4f/XQdQyvzPbyiKgO+jiuHVxDHJVoIv635XMk/tfmqsZ6VIJ//vXGCxifPH3qEhKDJrWUDUv3yg9j1smNK/dckicyQYfYpkdlafF2eUmQKK7K99LZWzLpw2Wyb+tpyZonjUxd0d3u+Q7tPCf928xQx2s0Lyp9RzeRmePWyc/T/7JIU6d1cen1SUOLsMePnsqV87dlyQ//yO8LdkmD9kHSbUg9izjmOwum/SmzPl9vHmTyN3m9jFRuWFhyFcqg6vTsyXP56/dDMn34Snlw77EpHjyo89dreknipAmkY8XP5UnwM9Px3K9klAm/viUP7gbLq2XHy7Onz03H4OnzaSOp1bKYjHtvoWxctl9qG/7eRpgtd/H0TelS60tbhxwKw7WDa6hRvfqmFVx8ONEhdD4TiULiM03pWEUgINrpEQne4utKV61xESlTI58hJmtlxVzX5N2qW0WBAHzWc4Ec3XtBda4Y/YyY+Zq81+I7OXvsqnSvO9VUjREzO8gmowNd88suFfY4OFQo0cGu+mmn1G1bUn75ZouEvAhlgsj37wRL19qhHWuyVImkSJns0nN4Q7lz86HRMe+TPX+fUvmmTJtEPp3VQUb1+UXOHL2qwu7eeqi25n/ixguU98Y2lXSZksv8aZvl4I5zSgSy50srzQ1xHD33denb4lt5agiLdq8Y54SI3b7+QCo3KCxrf92tD1lsS1bOLVvXHTGFxYkbYPDPK08ehwoPDj68/1jeb/mdKZ72WIuQDo/MFtdQgzp1LV6XguuLghIZit4bl0LivW3ndMn1aEQLyaGjoZ2Q05laJUyYKJ70GNZAytTMJzOM0cnpw1esYkRuN13mFEYn/kB2Gx04On7cvf/67RY5aeSLu3J0wOdOXDdlis7x9o37FmE4mDF7SsmSK4181OlHmbjobUEnvH3jMVM6eIyna5Rg6ECIx9lj16TJG2XVyOeftUeU2OB4sNHRw2HEYn5+FWj2B6JQunpe6VD+c1VefejEwcsyYcASadyptCRMHM/ivLVaFjeEcLdcu3hHWnapYFNI/jbKUqlBIQshKVU1rxzff0nyGKMWc/fieUi4ZTSPG1k/riE9taWvL4pIZCl6b3zLiWPvrQdL7gQB/MPDSHru4gUnUjuWpGSl3PLlsq7SpmclxxLYiYWRRY586V7m1aOS5CqYXk397PrzhFw+d8tOqrDBtVoUky2rD6mpoA1L9kr9diXDRjILwfRSqnRJpHX3ipIhawrZ/NsBs6OOe/MVzSTnjl+zEBGdGqK38Nu/LUQkUZJ4Uq52fvnDON/W9UeVAGI6zNr9ueKAlDVGH7C5aFelcWGVTu/rbYBhU8lZIH2YX/LUiXQUp7e4hnAt4Zqi8z8CoVef/9Xd72usheTW7dtuZ9Hh3WpGh4fRyVrZ+8/pSJ/v8K7z8mGHWdKudxVp16uydOhbTa5fvivfj14jfyx3rHOH4RrTY+PeX6TOv9nohDu+X13SZEym7vp1oZIkSyDLjw3Wu2p7bN9FGdF9vsAu44zLVSi9wBZh7irVL2gsHEihgiBYh3ael/3/nlH7sKMc339Rbl59aWf6e81hqW/YZib/b5l5FnJk9wW5d/uRYBTy16qDalRTvEJOZTt6c1Ati7iwLU1a2sUiDDuw58CuExWHa4hCEhWC3p2WQuLd7Rel0uspiKcuMrRHqTAOJD6y54IMfWuuxE8YV4qVzyG1WxWX/p+3UN/I2Lh0X4Q5lDBGR0lTJFSrpdIatgo4TFvVbVNCZk/YYEoPW8In3eYLhCdP4YzS1hCuRd//LZjSctZdv3zPMLCnt0hetFxOyV88swrLmC2lLDTOoYWktjGtde3yHalpjKDgMHVXrWkR+X7UagujPKbh/lx50LChFFRCUt4YxezfdsbmyAfTgd3qTFH5mf95ZNQ3qg7XkL6eopoX03sfAQqJ97WZS0uMf/44ceKIu8Vk9sQNMn/KZqfKHhgnQJp0KqOM3FgJFvzwierU0bH3n9BcqjV5RRwRktqtiinhaPBqkKkcj428IEjzJm8yXkL4QoU/f/5CrQTDzp4tpwSG+vfHNTNGLXeNUcM5U9rIeLBAoKYxGsIyXG3c//Lj5aYsxv/ypskPA3zuwhmUkDXqUMoUbgxapHqzorJs1jZTGDybVxyUUXM6KYGt0vgVWbdwj8VxvYPz3rp2X++6dItrCNcSnX8SoJD4Z7tb1Dp5MmNq53qoodriYBR3dmw+HmVjO2wI9Y3OH3ffsCWYu+uX7krS5AnMg2z6k6VMaBi78xlG9tnqjl1HQvisLe9J2Vr51Z29DjffLp+9zbjjLyT9xjeT7vWmWizDNY8Xnv/Av2cFNorWxuqz+VPDCqr5sxwwsmNk8sFrsyyy7PJRHaln2HSshQQidctYWFClYSHJXyyzfNoj+h8uxTVE578EaGz337Y3Lc3MlD6sETeqWB4+eCxTh/wmQzrPjfKKLZRl/eK9hl2kujTqWFpNTSU3luRWbVRYLeHFcxgRuWpNishdY9XXge1nLaJiamvHH8eV/cHigNkObrS//Pg3SZ0hqbTp7tyiASwIGP3ur9K+TxV5vX8NgfEddShWPqd8NK2NWjxwxYiD0RdGWLbsPmCQNXcaKVwqm1npXnoxvdXhveqy01h8gBGbLQchy54/nc2fuZDZShtRmL6GuFIrIlK+eZwjEt9sV4drhS/c5c2VW3bvj9jG4Gim7nggcc4XGyX4wRNp8VZ56fpxXVUUGKJnT1ivngmJqGx4dgRTQHpayTz++kV7BQ9SZs6Z2jzYwo9nRBbP+Ec9ELnB6NDPn7phcdyRnb9XH5bRfX41RlclpeFrpdRUFJYPY7oMz5BgyW6FugXVU/u2xBHHzxorv2B0XzTDcmT2p1E3sAlvVRmM7VhBZ8u9WmacxaoxW3HCC8M1hGuJzj8JxAoKCgp59ChY9ruwI/FPlN5Ra20QxZp/fJjo4cOHsnj5Mhn0ybAoV0C/HgV3x+50WBobN34ct833u7PsOm8Y8lOlS6pWntkSNx3PW7ajPh4iTRs2koQJE6ovJ+pP8HKE4i0tGLVyckQSNX5emRr/3PqHf/jK5Su4xODubgHRsLH6yPp1IvqYt2zxcCAeNPQFB0M7riFz8aCA+ELLOl4HjkUdZ+UTMc3/weEPCAhQd5E1K1fxifqxEtFPANcORiK4lqyvr+gvDc8YEwQoJDFB3QPOiX943EHinz8wMFCaNbB8UaEHFJFF8BICuHZwDeFa0qMSLyk6i+kiAhQSF4H0xmy0mMSNG1eKFykq1StW9sZqsMwxSADXDK4dXEMUkRhsiBg+NYUkhhsgJk4PAdE/3EVijjtevHjSpWMniWPcWdKRgCMEcK3gmsG1g2tIT23pa8uRPBjHNwhQSHyjHZ2uhZ7eQmeQM0cO6dE59AlrpzNlQr8ggGsF1wyuHT2t5RcVZyXDEKCQhEHiHwH6rhFbdAKYmoDBtGXjptKgpuXL/vyDCGsZGQK4RnCt4JrBtcPRSGTo+V5cConvtWmka4RRCYyluLNMnDixvN+zt1QuWy7S+TCBfxDAtYFrBNcKrhlcO7iG6PyXAFvff9veZCfBqAQdgR6VJDPemzS4/0CpVaWqH9Nh1W0RwDWBawPXiB6N4NoxH+HaSscw3yZAy6pvt69DtdPTW4gcP3589RZXPPnev1cfyZQ+vfz46y/qKXiHMmMknySAUcdrLVpK+5atlYgkSpRIXSt62S+uITr/JUAh8d+2VzVHB4DXppiLSYIEL9+mi7CObdtLkYKFZe7CX2T7HtvfDPdzhD5f/aCixaR985ZSrEgRSZo0qZrSwjViLSIUE5+/FOxWkEJiF43/HLAnJtp2ElSihGTPmlX+3blD1v/1p+zYs0eePX/mP4D8sKaBAYFSsqjxbFGFilKqRElJnTq1EhFMZ2m7iDawAw9FxA8vErMqU0jMYPiz15aYIAxigmcEMOWVMmVKKVnM+HLftWuyY+8eOXbqpJy/dFFu3Lwp9x88pLh46QUE0UicKKGkMto3c4aMkidHTilpPGSYJk0aJSAQD0xlQUD0Ci2KiJc2tpuKTSFxE1hvzNZaTCAielSiDfHoVNKmTStZjRHKgwcP1NuDHz9+rL7XDbsKnfcRQBtDGCAUWjSSJEmibh70CAQ3E+ZTWXoEorfeV2uW2JUEKCSupOkDeZmLCaqDzkOLiR6Z4LO8WLWDLV5Fjx/sLM+fP/cBAv5XBT26QFvjh3bGjYMWD30N4DqA0+Kht/5HjDW2JkAhsSbCfVNHoVGgA9E/dCroZDDVhRGI/tn6XretMJ0ntzFHwJYAIEy3MbYQF/N9lFan09uYqwHP7GkEKCSe1iIeVB7rDkN3LBAICAq25mJh7vegarAoERAwb2f4zX9Iqo/rbQTZ8bAfEqCQ+GGjR7bK1h2I3qdwRJakd8TX7atLa72vw7klAU2AQqJJcBshAfMOBSJivh9hYkbwKgJsW69qrhgvLIUkxpvAOwvAjsY7242lJgF3EOC7ttxBlXmSAAmQgB8RoJD4UWOzqiRAAiTgDgIUEndQZZ4kQAIk4EcEKCR+1NisKgmQAAm4gwCFxB1UmScJkAAJ+BEBCokfNTarSgIkQALuIEAhcQdV5kkCJEACfkSAQuJHjc2qkgAJkIA7CCghMV6vQ0cCJEACJEACThHgiMQpbExEAiRAAiSgCVBINAluSYAESIAEnCJAIXEKGxORAAmQAAloAhQSTYJbEiABEiABpwhQSJzCxkQkQAIkQAKaAIVEk+CWBEiABEjAKQIUEqewMREJkAAJkIAmQCHRJLglARIgARJwioBLv5B48vRpOXz0iEVB8CW9ePHiSfJkySRXjpySLGlSi+Pu3lm7caPEixtXKpUvH6lT7dy7Ry5fviw1q1WXuHHiRCotI5MACZCAPxFwqZCsWrtGho4eaZdfXKNDb1C7jowdPkKSJkliN54zB54+eyZf//C9ZMqQUZo2aGjKoteA9yVNqtSyeeXvpjBHPFO++VqWrVoph7Zul1QpUzqSJFri2KtntJycJyEBEiABGwRcKiQ6/xaNGkvVipX0rjx/8UJu374t38z6QRYtXyZ37t6Ved9+L6787veSFb/JsNGjZMJno0znhadqhYqS1IlRUJFChSU4OFjieNhoxF49LSrNHRIgARKIRgJuEZLiRYtKm+YtwlTj1dZtpHL9urL+j03GFNhRKZAvX5g4rg74asIXTmX5TrfuTqVjIhIgARLwNwJuERJ7EGEfqVWtmsz6aZ7s2LPbQkhOnDol23bukOMnT0rs2LEkZ/YcUr1yZUmXJq0pu1u3b8nq9euldMkgefDwgSxduUJeKVhIkiRJLFv//VfF+9fIIzAgQOobU2hJEieWxb8tl/iGjaZuzd4hQkIAAC31SURBVFqmfOC5eu2a/Ln1H9lt2ELSpE4ttavXkHy585jibNm2Vc6dP6+myWDjuX3njvy+bq2ULF5ckiZOIqs3rBfYhMqXLiMVy5aV+PHjm9JqD6ahNmz+Q46fOCEXLl0ypt0ySKECBaSKMUoydxilZUifXkqXKCmb/vpTtu/aJWK8SLNU8RIWI7t/tv9rt54hISFKoHfs3q3Y5M6ZS5UtV44c5qeinwRIgARcTyAoKCikcOHCRj8UdWfYFULS5M4RMv2H7+1m1rJTBxXnl6VLTHHGTJoYkjF/HhWer1SJkLR5cip/ruJFQv746y9TvN379qnwT8ePDcExnAu/Vv/lqfeR/tjJEyod8qtYt7YpD3gMIVPpEK9QudLKny5vrpA5Py8wxevcq4cKv37jhgo7cOiQ2u8/+KOQV8qXDclRtHBI+do1VVlRlqMnjpvSwnP42NGQqg3rqzSoW+4SRZUfZXyty1shL168MMXPU7JYyOs9uoW82bunKb6uS8/+75videv7jikPHNf1fPL0aUibzq+rY+nz5Q4pUCZI+TMVyBvy7ayZpvT0kAAJkIA7CEh0Cgk6V3R+6OyMu3lVnz//+Vt1eo3btQk5ffaMCrty9WrI+CmTVXj91i1M9dZCksFI/0bP7iFrNmwImfLtN+r4z0sWq/g/Lphvig+PtZCsWrdWnb95h/YhOA8cygVRQFzDfqPC7AkJOvDu7/cNefzkiYq3a+/ekPylS4aUq1Uj5O69eyoMf5q0b6vKg3I9evQo5NmzZyH//PtvSMV6tVX4xj83m+JCSMClRpNGIStW/67yPnTkSEjxKhVVXGOUZYprq57zF/6q4g0dNTLk3v37Ki7qVLhcmZDMhfKHGKMpU3p6SIAESMDVBNzyHAmW3I6eOMH0GzrqMzE6ZjE6SjEqIG916CQ5smVTw6vTZ89KuVKl5dOPB0u2LFlVWNo0aaR3l25qyfDxk6fCDMPSpE4jX30+UWpWrSo93nwrzPHwAiZNn6YM6NPGTxScBw5TWkMGfaDOB/tNeA5TbRM+HWlaElzslVekX68+cvzUSTWNhrSGoEgyY7lz59c6SMvGTdS0V4Ax3VYmKEjatWilsscUnrkDl68mTJR6tWqrvPPnzSu93+6qouzat9c8ahg/zg1Xo0oVSZwokfKjTpPHjJVhgz6UJ0+eqDD+IQESIAF3EHCLjcS42xb8zF3s2LEla+bM8m73nkZn2tJ06NVWrQU/7R4+eiiwl+w0bCjofB88fKgPmbaFCuQXLCWOrDOmk+TAocOG7aG4SUR0HrWN50Xwi8g1qFNHPRdjHq9OjZrywfChsu/gARWMpc0zp35ligKRgI3kyLGjsnf/PhX+KPiR6Tg8KZIll9zGczbmLkumzGrXGGWYB4fxVypXQSZOmyodur4trZo2MwSlqlQqV07ZV8xXz4VJyAASIAEScAEBtwhJL+NOulWTpqbiJUqU0DAmZ5A4gbZPB8P2NzN/kD1GJ3v+4kWVDsZrdMC2XNbMWWwFRxiG0Q+EKqPxrImzLkumTGGSZkiXTi1lPmT2MCaWOH87e6bg2ZqjhrHdmN5S6fBgJpx13fToSB387w+M/HAQwPAcRAPLnoeM/FR+mDtH/SC0VcpXkPd79ZYSRYuFl5zHSIAESCBKBGz37FHKUiR9urQWK7LCyw4rlrq996564r1G5SrGVFVxtbKpWOFXpHbzpnL63NkwyZ190jxOnJfV1Z16mIwdCHjy5GmYWPcfPFDCkNaYcoND/q1e7yCGTUd14pjKK1q4sODZFIjl2+/0DpNHLGOlWlQcRnWYRtu05S+1Umzdpo2yZuMGtQps/oyZUqFM2ahkz7QkQAIkYJeAW4TE7tlsHBj/5WRjuW9sWb1wiWTP+tJGgmjPnz+XU2fPiLG8yUYq54Lw1DtECCMTa3fj5k3p0rePVK9UWXq+1cX6sGn/5JnTJr/2HD95QnmLGuIHh6XBEJG2zVvKpNFjVJj+A+GEe/7cdfU6deaMmg6Ezch8im7y11/JJ2PHqIdAKSS6BbglARJwNYHYrs4wsvmdvXBeEhjTWGnTpLZIOveXn5WR+JkhKI44PW2GqSt7DoJV3bAf7D2wX7bt2GER7fs5s2Xzli3y7Fn458OT5ZevXrFIa6wcU1Nb5UuXVuFnz59T26xZXto4dGQ8i7Jw+VK1++z5Mx0cqa2teuK1NO3f7qxGIOaZYQQElyB+AvNg+kmABEjApQRifESCh/mwyqvPwAHymvHkO2wHMNR/PfMHtYoKnS9+2rZgr/apU6VSh76bPUsuXb4ib3boqB4AtI4/dOAHaurn1S5vSv8+7ygDt7EkWBYsWqRWjXVq1946icU+XpvSsE1rGWCkTZkipcxf9Kss/32VDOr7ngQZDxDCVShbTgkLygIjOmwUew/ul5lz58rVq9dUnFu3bqttZP/YqufbHTuphyX7ffQ/440CzaVsUCnD8H9Q5vw8Xy1KaG68soaOBEiABNxFIMaF5HNjKW3Pfu+pp9TxpDpcwfz5ZeHsOWI8oyFYOoynw5s1bBQugzJG54mXNS43XrT45TfTpXiRIjaFJGf27LJ20VJ5Z9AA+WjEJ6Y88bQ5XiYZkWBhuir4cbD0MdLDCJ7ZML6/37O3vNejlymvEkWKypjhn8gnY0ar1Vw4gMUDb7R/1TB+95GSVSupOpkSRMJjq56N6tZTy6GHjx2tVm8hO7zHLG+u3LJ07k+KRSROwagkQAIkECkCsfBAIu6y9xlz+jHprl2/rqaMsCIrKq+aR11g/NZ37uHVCctqzxjG/EwZM6qRQ3hxDx4+LFUb1VcjnZGDhwrS4jUr4b2CBM9vYLFAQOwA9dwMptZc5WzVE8J2+epVuX7junG+7OoVMa46H/MhARIgAXsEYnxEoguG913hF1WHO39b772ylS/exVW4QEFbhyIMQ1r8wnNYgotRgTucrXpCqDIa7+zCj44ESIAEoouA626Ro6vEPA8JkAAJkIBHEaCQONgcsDlg6XBggMcM4hwsOaORAAmQgHsJsFd0kC++nXL+oOVnhB1MymgkQAIk4NMEOCLx6eZl5UiABEjA/QQoJO5nzDOQAAmQgE8ToJD4dPOyciRAAiTgfgIUEvcz5hlIgARIwKcJUEh8unlZORIgARJwPwEKifsZ8wwkQAIk4NMEKCQ+3bysHAmQAAm4nwCFxP2MeQYSIAES8GkCFBKfbl5WjgRIgATcT4BC4n7GPAMJkAAJ+DQBColPNy8rRwIkQALuJ0AhcT9jnoEESIAEfJoAhcSnm5eVIwESIAH3E6CQuJ8xz0ACJEACPk2AQuLTzcvKkQAJkID7CVBI3M+YZyABEiABnyZAIfHp5mXlSIAESMD9BCgk7mfMM5AACZCATxOgkPh087JyJEACJOB+AhQS9zPmGUiABEjApwlQSHy6eVk5EiABEnA/AQqJ+xnzDCRAAiTg0wQoJD7dvKwcCZAACbifAIXE/Yx5BhIgARLwaQIUEp9uXlaOBEiABNxPgELifsY8AwmQAAn4NAEKiU83LytHAiRAAu4nQCFxP2OegQRIgAR8mgCFxKebl5UjARIgAfcToJC4nzHPQAIkQAI+TYBC4tPNy8qRAAmQgPsJUEjcz5hnIAESIAGfJkAh8enmZeVIgARIwP0EKCTuZ8wzkAAJkIBPE6CQ+HTzsnIkQAIk4H4CFBL3M+YZSIAESMCnCVBIfLp5WTkSIAEScD8BCon7GfMMJEACJODTBCgkPt28rBwJkAAJuJ8AhcT9jHkGEiABEvBpAhQSn25eVo4ESIAE3E+AQuJ+xjwDCZAACfg0AQqJTzcvK0cCJEAC7idAIXE/Y56BBEiABHyaQGB01u7EiROydu1adUr4a9WqpX7RWQZXnuvx48dy7fp1SZ8+vQQGBLgya+ZFAiRAAl5DIFpHJNOnTxcICH5wa9askQEDBpj2vYXatO+/k0btWkuuEkWlRNVKkv2VgtL3w0Fy5+5dUxW+mvG9ZCtSyLTvqOfA4UOSNk9O2blnt0NJnj57Jl/PnGGKG9n0poT0kAAJkICTBKJNSCAa9pwepdg77knhI8aNkc8+HycF8+WXGVOmye+/LpZ3uvWQZatWykeffhLloiZPllzatWgpqVKmdCivmXPnyIhxY01xI5velJAeEiABEnCSQLRNbYUnJE6WPdqTzfppnkya/pV89vEQeatjJ9P5ixcpIqlTpZKBQwdLswYNpXrlKqZjkfVkypBBvhg1xuFkL0JeSKxYsUzxI5velJAeEiABEnCSQLSNSHLlymW3iHqqy24EDzmwYs1qKVG0mLzZoWOYEnVq116Gf/iRpE2TxuLY3/9uk7otmkluYxqseYdXZe+B/abjCxYtlB7v9xUIVMGypaRzrx5y/NRJqdWssRw+elTFgw2my7t9JH/pklKgTJC0fqOTHDl2TB2bv/BXmfbdtwJbDdKs3rBeTpw6ZZEeERGvXqsWkqt4ESlasby83rO7nL9wQeWBP4M/GyFTv/1GfjBGN5Xq15F8QSXkDSPO9Rs3THHoIQESIAF7BKJNSOwVAOEwunuD271vrwQVK24xAtDljh07tnR7o7MULlBQB6kOHh1yzWrV5P1efeTMuXPS7q3OKhyRrt24Lus3/yGjv5ggVcpXkDSpU6tje/bvl4ePHqp8+gwaIPsPHpQP3+snn/zvY8MOc0fZZ548eSJFChWWMiWDlKEf4pYnZy4Jfhws5ulnzpsjvQf2N+KVlEmjx0rLJk1ly9Z/pNeAfqZynj57VtlZphhi0rJxU+n+5luydtNG6TOovykOPSRAAiRgj0C0TW3VrFnTrlHdG4QEd/A3b92SXDly2GMZJvzFixcydvgIaVS3njqWxpj+6tHvPUHHnS9PHhWGPGFraVC7jtqHsdzcbdm21RCR96Vj23YquEihQjLlm6/l6rVrUiBfPilRrJisXLdW2jZvaTP91u3bDXFoIkMHfaiO4zwYwcyYM9v8NHLrzh3Zvn6TEjMcuHf/vnz1/bcWcbhDAiRAArYIRJuQYGprzJgxaqUW7CV6qgsC4w0ufvz4qph6pOBomSsbIw3tygaVUt6zF86bhAQB5cuU0VHCbIsao44xX0w0hOO61K1RU0oawhEZG8rU8RNMeWKq6tCRI3Lx8iXBai/84gS+vATy5c5tEhEkyJk9uzoeHBwsuu6mjOghARIgATMC0SYk+pze+uwIjOmwfxz7b+myro/59sbNmxarrdABJ0ua1BQlXrx4yv/c6MC1S5AggaQwVmrZc99Mmiy9B/SXL7+ZLpO//kqVoedbXaR75zftJbEIx8jlE2Ol2dqNGwTlw/SZXhEWEhJiipsqZSqTHx5dVhjz6UiABEggPAIeYSMJr4CedKxQ/gLK/mDeAevyPXr0SBmq23R+XQfZtKWYDv7niehBxnRp0sqCGTNl/5atMnHkaMmbK7cMGfmp/LJ0iXVWNvc7du8qGzdvlkHv9pU/V62WA39vM5YXtwoT12zhV5hjDCABEiCB8AhEy4gEq7JOnjypfiiM+SotTHHlzJnTKwzur7VuI2/27qlGB727dLPg+t2Ps9Qqp5pVq1qER2XntmG3wIOOb3d6XcqXLiPtW7aSVk2bSeGypWX33r3K9oGlv7DF2HJY8YUHG0cPHS6d2r1qinLwyGHlf/H8uUicOKZwekiABEjAGQJuFRIIBh42NBcO60LiGH6wm2DaC6Ki7SfWcWN6H0bzrq93lpGfj1fTRDWqVFNFWrhsiSxcvkyCipeQTm3bu6yYyZMlk8dPHsvw0aNk9LBPlN3it9WrDMP4bSkTFKTOkyhhImU8X7V2jVqabH5yTMflyJZN1mxcL00bNDA0I678vHiRYNkx3KPgR7R/mAOjnwRIwCkCbhMSCENkH0LU8bt27eqxYjJ44CBJnCiRbNryl3wz8wdlkI5r3NW3a9naWF31nsSNG9ephrCXaMjAD+STMaOl6att5cHDh+rc/3u/v2klWPXKlZVYYAqrf593pH6t2qasMFoZaqQfPWmi8ZxKaYlt7FcoW07mffu9tH3zDdmxe4+4cgRlOjE9JEACfkUgVlBQUAhW5uzbt8+lFcc7tJx1GJFATDzdYQXXlavXJEvmzG5/aSNWWF2+clkyZ8xk0/aCabAkiRNLgJ2XR14y0sLwnzBBQk/HyvKRAAl4GQG3jUiiwiG8qbCo5OvqtOiUMXUUHQ7LdLNkymz3VJgGC89lSJc+vMM8RgIkQAJOE+CqLafRMSEJkAAJkAAIuG1qi3hJgARIgAT8gwBHJP7RzqwlCZAACbiNAIXEbWiZMQmQAAn4BwEKiX+0M2tJAiRAAm4jQCFxG1pmTAIkQAL+QYBC4h/tzFqSAAmQgNsIUEjchpYZkwAJkIB/EKCQ+Ec7s5YkQAIk4DYCFBK3oWXGJEACJOAfBCgk/tHOrCUJkAAJuI0AhcRtaJkxCZAACfgHAQqJf7Qza0kCJEACbiNAIXEbWmZMAiRAAv5BgELiH+3MWpIACZCA2whQSNyGlhmTAAmQgH8QoJD4RzuzliRAAiTgNgIUErehZcYkQAIk4B8EKCT+0c6sJQmQAAm4jQCFxG1omTEJkAAJ+AcBCol/tDNrSQIkQAJuI0AhcRtaZkwCJEAC/kGAQuIf7cxakgAJkIDbCFBI3IaWGZMACZCAfxCgkPhHO7OWJEACJOA2AhQSt6FlxiRAAiTgHwQoJP7RzqwlCZAACbiNAIXEbWiZMQmQAAn4BwEKiX+0M2tJAiRAAm4jQCFxG1pmTAIkQAL+QYBC4h/tzFqSAAmQgNsIUEjchpYZkwAJkIB/EKCQ+Ec7s5YkQAIk4DYCgW7L2UbGJ06ckLVr16oj8NeqVUv9bERlUDQRCAkJkVixYoV7thcvXsizZ88kbty44cbjQRIgAf8kEK0jkunTpwsEBD+4NWvWyIABA0z7nt4Ejdq1lrR5cpp+6fLmktwlikqtZo1l1k/zTMXfvmuninPoyBFTmCd5nhqiMHriBKlUr47kKl5E2r75hly8fNluEXsN6CedenSze5wHSIAE/JtAtI1IIBr2HEYpuXLlsnfYo8Lz5sot7/XqrcqEu/l79+7JslUrpN/H/1NhHdu286jy2irMpOnT5McF82XCZ6MkZYrkMmz0KGnUtrVs+X2NxIsXz5Tk2fPnMvLz8fLLksVSo0pVUzg9JEACJGBOwCOExLxAnu5Pkzq1NG/YyKKYEI8KdWvJnJ/ni6cLyYVLl2TC1CkyasgwqVm1qqrHd5OnyCsVysrSlSukVdNmKuzYyRPS4/2+ctQYPWZMn96ivtwhARIgAXMC0Ta1Fd6IQ091mRfMm/yxY8eWAnnzyakzZ+wWe/7CX6VeqxZqKqloxfLyes/ucv7CBRV/w+Y/1PTYuQvnLdIvWr5MmrRvKxgZwO3YvUuavtpOTadVqFNLvvhqmsB+oV3Dtq1k1bq16jyla1SVdZs26kOm7d/btsqTJ0+kQe3aprDUqVJJyWLFZK1Z/EXLlkmcOHFl9a+LpUihwoYdxRSdHhIgARKwIBBtQmJxVqsdGN292T169Eg2/rlZcmbLbrMaM+fNkd4D+0uZkiVl0uix0rJJU9my9R+B7QGuZLHicvjYMTUiMM/gxwU/SYZ06SQwIEBgd2ncro0hKs/UaKKDMQqaOG2KDP7sU1OSfQcPysAhgyUgILbkzplT0qVNazqmPRA7GM1TJE+hg9Q2fdp0cu36dVNY59c6yIoFv0i+PHlMYfSQAAmQgC0C0Ta1VbNmTbtGdW8Skus3bsji35YrlrCRXLtxXZas+E3uP3ggXd7obIuxbN2+XVo2biJDB32ojjeoXUceP34sM+bMVvtJkySR2tWqKyHp+VYXFYZO/a+tW2XWV1+r/RHjxkqG9Blk2bwFplVW8QxB+GjEcOlmnDdzpkwqXqqUKWXp3PmCUZItd+/+PUlpJSKIlzxZMjliiJl2GKXQkQAJkIAjBKJNSDC1NWbMGLVSC4Z3PdUFgfEmd+T4Menybh9TkQOM0UK2LFlkytjxYWwnOtLU8RO0VyBEWM118fIlweop/OIEBiqhwcqos+fPSdbMWZSoJEuaTKpVqqymtrbt2K7sF3sPHDDllTFDBpV+1769JiEpW6qUXRFBwoCAQON42HmqWLFiy5OnT0x500MCJEACjhKINiHRBfL2Z0eCipeQbyd9qaqDDjl1qtRq6knXz9b26rVr8sm4MbJ24wa5cfOmwGCPkQMcRjVwNapWU6MCGLx7vd1VFq9YLo3r1VciA1sK7CTzfv1F/VQCsz/nzp837WUyxCU8lzZNGrl9526YKHfu3pHEiRKHCWcACZAACUREINqFJKICefpxTCdFdhVTx+5d5cLFizLo3b5SrnQZwRLiad9/J0NGhto34saJo4Rj+apVyoaybccO+d/7/RWOZMa0Exz2u3R6XfnN/wQaabXDiCM8ByF5+Oih+iVMkNAUFVNpWTNnNu3TQwIkQAKOEgi/13E0lwjiYVXWyZMn1Q9RzVdpYYorp2EY9iY7SQTVtTiMDnrnnt0yeuhw6dTuVdOxg0cOK/8LrMj6TwhaGHaU2fN/kvkLFwpGFmVKBqk4SRInNozu6WXFmt/lnW7dTXnsO3hAxk6eJB/166/EyXQgHE+5UqXVCGrdpk3SqG49FfOu8SzMvzt3yJBBH4STkodIgARIwDYBtwoJBAMPG5oLh3UxcAw/2E0gJhAVbT+xjuuN+zBa58iWTdZsXC9NGzRQS2p/XrxIFixaqKrzKPiRxI8fX/nLBpVSAvLFV1PljVc7mIzqOPhu9x4ycOhgGWFMkeHY7Tu3pe+HHxhp40menI4/zInRVL1ateWzz8dJ/rx5JY0xNffBsCGGnSerhdCpAvEPCZAACThAwPbSHgcSRhQFwqBfiRJRXH3cmTQ6radu8R6roQM/UK8gKVi2tOQLKi4r166Red9+r4q8Y/ceU9ERt3mjxmoFGFZ5mbtO7drLx/0HyHezZ0nxyhWkYZtWysCOp9MjeleWeT7wjxn2iSFYGQXPohQsE6TKNnnsOMH0Gh0JkAAJRJZArKCgoJDg4GDZt29fZNOGGx/v0HLWYUTStWtXZ5N7bLpLVy5LsqRJxdw2YV1YjDjW//GHrF/6comx9XE8gHjh0kXjGZF0Ue74b9+5I8+NqTVt+Lc+F/dJgARIwBECbp3acqQAtuKENxVmK763hMHOYc/hORSszsI7sD5473170dTS3iyZXGMUx7MjdCRAAiQQVQIeKSRRrZQ3pq/TvKng/VaVypWT9i1be2MVWGYSIAE/JeC2qS0/5el0tXcbU4t4k3AZ44FC2iqcxsiEJEACMUCAI5IYgG7rlMVeecVWMMNIgARIwOMJuG3VlsfXnAUkARIgARJwCQEKiUswMhMSIAES8F8CFBL/bXvWnARIgARcQoBC4hKMzIQESIAE/JcAhcR/2541JwESIAGXEKCQuAQjMyEBEiAB/yVAIfHftmfNSYAESMAlBCgkLsHITEiABEjAfwlQSPy37VlzEiABEnAJAQqJSzAyExIgARLwXwIUEv9te9acBEiABFxCgELiEozMhARIgAT8lwCFxH/bnjUnARIgAZcQoJC4BCMzIQESIAH/JUAh8d+2Z81JgARIwCUEKCQuwchMSIAESMB/CVBI/LftWXMSIAEScAkBColLMDITEiABEvBfAhQS/2171pwESIAEXEKAQuISjMyEBEiABPyXAIXEf9ueNScBEiABlxCgkLgEIzMhARIgAf8lQCHx37ZnzUmABEjAJQQoJC7ByExIgARIwH8JUEj8t+1ZcxIgARJwCQEKiUswMhMSIAES8F8CFBL/bXvWnARIgARcQoBC4hKMzIQESIAE/JcAhcR/2541JwESIAGXEKCQuAQjMyEBEiAB/yUQGJ1VP3HihKxdu1adEv5atWqpX3SWgeeyJBASEiKxYsWyDLTae/HihcSOzXsOKyzcJQES+I9AtPYO06dPFwgIfnBr1qyRAQMGmPb/K5PHbhq1ay1p8+Q0/dLlzSW5SxSVWs0ay6yf5pnKvX3XThXn0JEjpjBP8jx99kxGT5wglerVkVzFi0jbN9+Qi5cvWxTx7Plz8kbP7qp+WQrllyoN68lvq3+3iMMdEiABEgCBaBuRQDTsOYxScuXKZe+wR4XnzZVb3uvVW5UJd/P37t2TZatWSL+P/6fCOrZt51HltVWYSdOnyY8L5suEz0ZJyhTJZdjoUdKobWvZ8vsaiRcvngQHB0vbzm9IQECAjPjoY8maOYvMmjdXOvfqIQtmzJQqFSraypZhJEACfkrAI4TEm9inSZ1amjdsZFFkiEeFurVkzs/zxdOF5MKlSzJh6hQZNWSY1KxaVdXju8lT5JUKZWXpyhXSqmkz2bTlLzl+6qTM/eZ7U5xSJUrKX1u3KgGikFg0P3dIwO8JRNvUVngjDj3V5a2tAftBgbz55NSZM3arMH/hr1KvVQs1lVS0Ynl53Zg2On/hgoq/YfMfanrs3IXzFukXLV8mTdq3lWfPn6vwHbt3SdNX26nppgp1askXX00T2C+0a9i2laxat1adp3SNqrJu00Z9yLT9e9tWefLkiTSoXdsUljpVKilZrJis/S9+jmzZZOTgoVK1UiVTnDiBgZIhfTq5a4zA6EiABEjAnEC0CYn5Sa39MLp7s3v06JFs/HOz5MyW3WY1Zs6bI70H9pcyJUvKpNFjpWWTprJl6z/Sa0A/Fb9kseJy+NgxNSIwz+DHBT9JhnTpJNCYYoLdpXG7NoaoPFOjiQ7GKGjitCky+LNPTUn2HTwoA4cMNqakYkvunDklXdq0pmPaA7GLGzeupEieQgepbfq06eTa9evKj+m7Nzt0VOfVkU6cOiW79+2TIKOsdCRAAiRgTiDaprZq1qxp16juTUJy/cYNWfzbcsUQNpJrN67LkhW/yf0HD6TLG53N2Zr8W7dvl5aNm8jQQR+qsAa168jjx49lxpzZaj9pkiRSu1p1JSQ93+qiwtCpYypp1ldfq/0R48YaI4IMsmzeAtMqq3iGIHw0Yrh0M86bOVMmFS9VypSydO58u6us7t2/JymtRAQJkydLJkcMMbPlYJyHDShtmjTS1U4dbaVjGAmQgH8QiDYhwdTWmDFj1EotGN71VBcExpvckePHpMu7fUxFhkE6W5YsMmXs+DC2Ex1p6vgJ2vv/du4+1uq6jgP49yoqIclatvAh/3CDNRtbD5enJZq1HsjpHLaaOqP+yAuuTfBhSrXAbDWVuUJL3dS2aj6kgWuOWRY+/NVEVCBcD4t/UrBcDlyTBiv6fX91j+fg5fM5B4Jx9fXbDvf87uf9u/eel9t5+3s6pRZRvZpr28vbS32Dro962KgWzcLLF5V6tVQ9uV3PV0w5YUo5Z95Z7aGtpzc8056/2LRlS+dnnXzSSe32z23e1CmSOTNn7rdE6oZHHz2hmb/5ct+hoaPK7j27Oz979MnuPXva17u+2SO6/+4flVp6FgIECHQLHLYiGf2l4/3ekeEPfbjcteq29uXUN+QT331izyGg0dfZ/fVvr7xSblh5U/n1E4+Xv7/6aqkn7OueQ13qXk1dPvGxc9q9glogX/3KSHl47SPl/PmfbUumnkup50nu+/lD7aPdoOufv7z4YmftlKZcoqXuVezY+dqbIjtf21kmHz+55/v16q0vLh4pv31mffnx7XeWM+fM7ZlbIUCAQBU47EUy3tnr4aSTp04d6GXUN+OXtm0r1y1ZWubOml3qOYjb77m7LP/uG+c3jj3mmLY4Hnn00fYcytMbNpSvX3VN+3umNIed6lLXL1v4pfZ59z8Tmm1Hl7rHES21SF7f9Xr7mPSOSZ1oPZR22qmndtbrobdLF11Wntu0sb3kd87wzM7MEwIECHQLxO863cmDeF6vytq6dWv7qD+m+yqteojr9ObE8Hg6TzIIRX2Dfnbj8+XGFd8qCy+6pLPpC3/4ffv83/WKrP8VwYXN4a2fPHB/eWD16lL3LGZ/ZLjNvHPy5Oak+9Sy9rFflisWLe78jM0vbCk337qqfOPqa9py6gyCJ3Nnzmr3oH7z5JPlvM/Mb5P1Sqz1z24oy69b1tly5MolZePvNpc1P723zDjjA53ve0KAAIF9BQ5pkdTCqDcbdhfHvn9AndVHPW9Sy6SWyuj5k32z43G9XlpbL6d97Il15YJzz20649jy4MNrys/WrG5fzq5/7ioTJ05sn9f/668F8v07fli+fMmlnZPqdbhk8eXl2hXfLN9uDpHV2Y6dO8rSry1rtj2uTDu9/5s5697U/E9+qnznlpXl/dOnl/c0h+aWXb+8Oc9zWqfofvX4urK2uYv9CwsuLH9s/tvUx+jyrmbv6ONnnT266isBAgQO3aGtWgzR3exj2Y/mR0ZG3jJlUj/HasW1y8qNq75XzpgzqxzVrH+0Oddw3133tB9NsuH5jZ2b/mp2wXnnl1V33tGefO82WnjRxc2VYf8ot/zgtnZ+/KRJ5ewz5zWHu67uKZzubfb3/KbrbygjS68o9V6Uemlxvdnw1ptXlnp4rS73PvRg+7Xe+1If3UvdO1Ek3SKeEyAwNDw8vLeeVN3c3CPw/1zqZ2gd6FL3SGqZvNWW7X99ubkS64TSfW5i39dY9zjWPfVUWfeL/15ivO+83oD40vZtzT0i7+288e+b6Xd9x86d5V/NobXRE//9bidHgACBboFDemir+xcN8jw6FDbIzznSsvU8x/6Weh9KvTqrfgbWsiuv2l+svbT3fae8cVJ8v8E+BvXeEQsBAgQOVuCILJKDfVHjcftPL7ig/Gnrn8u8uXPLxZ/7/Hh8Cf5mAgTepgKH7NDW29TzgF92/fiR+knCs5sbCkfPVRzwD7MhAQIEDqOAPZLDiB39qg/OmBGNzQgQIHDEChwRH9p4xOr4wwgQIEAgFVAkKZEAAQIECEQCiiTSMSNAgACBVECRpEQCBAgQIBAJKJJIx4wAAQIEUgFFkhIJECBAgEAkoEgiHTMCBAgQSAUUSUokQIAAAQKRgCKJdMwIECBAIBVQJCmRAAECBAhEAook0jEjQIAAgVRAkaREAgQIECAQCSiSSMeMAAECBFIBRZISCRAgQIBAJKBIIh0zAgQIEEgFFElKJECAAAECkYAiiXTMCBAgQCAVUCQpkQABAgQIRAKKJNIxI0CAAIFUQJGkRAIECBAgEAkokkjHjAABAgRSAUWSEgkQIECAQCSgSCIdMwIECBBIBRRJSiRAgAABApGAIol0zAgQIEAgFVAkKZEAAQIECEQCiiTSMSNAgACBVECRpEQCBAgQIBAJKJJIx4wAAQIEUgFFkhIJECBAgEAkoEgiHTMCBAgQSAUUSUokQIAAAQKRgCKJdMwIECBAIBVQJCmRAAECBAhEAook0jEjQIAAgVRAkaREAgQIECAQCSiSSMeMAAECBFIBRZISCRAgQIBAJKBIIh0zAgQIEEgFFElKJECAAAECkYAiiXTMCBAgQCAVUCQpkQABAgQIRAKKJNIxI0CAAIFUQJGkRAIECBAgEAkokkjHjAABAgRSAUWSEgkQIECAQCSgSCIdMwIECBBIBRRJSiRAgAABApGAIol0zAgQIEAgFVAkKZEAAQIECEQCiiTSMSNAgACBVECRpEQCBAgQIBAJKJJIx4wAAQIEUgFFkhIJECBAgEAkoEgiHTMCBAgQSAUUSUokQIAAAQKRgCKJdMwIECBAIBVQJCmRAAECBAhEAook0jEjQIAAgVRAkaREAgQIECAQCSiSSMeMAAECBFIBRZISCRAgQIBAJKBIIh0zAgQIEEgFFElKJECAAAECkYAiiXTMCBAgQCAVUCQpkQABAgQIRAKKJNIxI0CAAIFUQJGkRAIECBAgEAkokkjHjAABAgRSAUWSEgkQIECAQCSgSCIdMwIECBBIBRRJSiRAgAABApGAIol0zAgQIEAgFVAkKZEAAQIECEQCiiTSMSNAgACBVECRpEQCBAgQIBAJKJJIx4wAAQIEUgFFkhIJECBAgEAkoEgiHTMCBAgQSAUUSUokQIAAAQKRgCKJdMwIECBAIBVQJCmRAAECBAhEAook0jEjQIAAgVRAkaREAgQIECAQCSiSSMeMAAECBFIBRZISCRAgQIBAJKBIIh0zAgQIEEgFFElKJECAAAECkYAiiXTMCBAgQCAVUCQpkQABAgQIRAKKJNIxI0CAAIFUQJGkRAIECBAgEAkokkjHjAABAgRSAUWSEgkQIECAQCSgSCIdMwIECBBIBRRJSiRAgAABApGAIol0zAgQIEAgFVAkKZEAAQIECEQCiiTSMSNAgACBVECRpEQCBAgQIBAJKJJIx4wAAQIEUgFFkhIJECBAgEAkoEgiHTMCBAgQSAUUSUokQIAAAQKRgCKJdMwIECBAIBVQJCmRAAECBAhEAook0jEjQIAAgVRAkaREAgQIECAQCSiSSMeMAAECBFIBRZISCRAgQIBAJKBIIh0zAgQIEEgFFElKJECAAAECkYAiiXTMCBAgQCAVUCQpkQABAgQIRAKKJNIxI0CAAIFUQJGkRAIECBAgEAkokkjHjAABAgRSAUWSEgkQIECAQCSgSCIdMwIECBBIBRRJSiRAgAABApGAIol0zAgQIEAgFVAkKZEAAQIECEQCiiTSMSNAgACBVECRpEQCBAgQIBAJKJJIx4wAAQIEUgFFkhIJECBAgEAkoEgiHTMCBAgQSAUUSUokQIAAAQKRgCKJdMwIECBAIBVQJCmRAAECBAhEAook0jEjQIAAgVRAkaREAgQIECAQCSiSSMeMAAECBFIBRZISCRAgQIBAJKBIIh0zAgQIEEgFFElKJECAAAECkYAiiXTMCBAgQCAVUCQpkQABAgQIRAKKJNIxI0CAAIFUQJGkRAIECBAgEAkokkjHjAABAgRSAUWSEgkQIECAQCSgSCIdMwIECBBIBRRJSiRAgAABApGAIol0zAgQIEAgFVAkKZEAAQIECEQCiiTSMSNAgACBVECRpEQCBAgQIBAJKJJIx4wAAQIEUgFFkhIJECBAgEAkoEgiHTMCBAgQSAUUSUokQIAAAQKRgCKJdMwIECBAIBVQJCmRAAECBAhEAook0jEjQIAAgVRAkaREAgQIECAQCSiSSMeMAAECBFIBRZISCRAgQIBAJKBIIh0zAgQIEEgFFElKJECAAAECkYAiiXTMCBAgQCAVUCQpkQABAgQIRAKKJNIxI0CAAIFUoC2SvXvTnAABAgQIEBhTwB7JmCy+SYAAAQL9CiiSfqXkCBAgQGBMAUUyJotvEiBAgEC/AoqkXyk5AgQIEBhTQJGMyeKbBAgQINCvgCLpV0qOAAECBMYUUCRjsvgmAQIECPQr0BbJ0NBQv3k5AgQIECDQI2CPpIfDCgECBAgMKqBIBhWTJ0CAAIEeAUXSw2GFAAECBAYVUCSDiskTIECAQI+AIunhsEKAAAECgwookkHF5AkQIECgR0CR9HBYIUCAAIFBBRTJoGLyBAgQINAjoEh6OKwQIECAwKACimRQMXkCBAgQ6BFQJD0cVggQIEBgUAFFMqiYPAECBAj0CCiSHg4rBAgQIDCogCIZVEyeAAECBHoEFEkPhxUCBAgQGFRAkQwqJk+AAAECPQKKpIfDCgECBAgMKqBIBhWTJ0CAAIEeAUXSw2GFAAECBAYVmDC6wbRp00ef+kqAAAECBPoWaPdIJk48ru8NBAkQIECAQLfAfwAcOOLHdHUhNgAAAABJRU5ErkJggg==;fontSize=14;" parent="1" vertex="1">
          <mxGeometry x="633" y="120.5" width="69" height="114.2" as="geometry" />
        </mxCell>
        <mxCell id="kWP5bIo4fPao6hV6OUjQ-7" value="" style="verticalLabelPosition=bottom;verticalAlign=top;html=1;shadow=0;dashed=0;strokeWidth=1;shape=mxgraph.android.phone2;strokeColor=none;hachureGap=4;fontFamily=ES Klarheit Kurrent RD;fontSize=14;fillColor=#102924;" parent="1" vertex="1">
          <mxGeometry x="100" y="108" width="75" height="140" as="geometry" />
        </mxCell>
        <mxCell id="BZqbb991lfNiMIulnx0U-1" value="current question&lt;div&gt;state&lt;/div&gt;" style="rounded=0;whiteSpace=wrap;html=1;hachureGap=4;fontFamily=ES Klarheit Kurrent RD;fillColor=#102924;strokeColor=none;fontSize=14;fontColor=#c8ffa9;" parent="1" vertex="1">
          <mxGeometry x="10.000000000000114" y="300" width="120" height="60" as="geometry" />
        </mxCell>
        <mxCell id="BZqbb991lfNiMIulnx0U-2" value="Question&lt;div&gt;Asked&lt;/div&gt;" style="rounded=0;whiteSpace=wrap;html=1;hachureGap=4;fontFamily=ES Klarheit Kurrent RD;fillColor=#EB4B2D;strokeColor=#141419;fontSize=14;" parent="1" vertex="1">
          <mxGeometry x="10" y="415" width="120" height="60" as="geometry" />
        </mxCell>
        <mxCell id="BZqbb991lfNiMIulnx0U-3" value="" style="endArrow=classic;html=1;hachureGap=4;fontFamily=ES Klarheit Kurrent RD;fontSize=14;" parent="1" source="BZqbb991lfNiMIulnx0U-2" target="BZqbb991lfNiMIulnx0U-1" edge="1">
          <mxGeometry width="50" height="50" relative="1" as="geometry">
            <mxPoint x="301" y="425" as="sourcePoint" />
            <mxPoint x="329" y="385" as="targetPoint" />
          </mxGeometry>
        </mxCell>
        <mxCell id="0-SrIZvd3cAVGvVJ-4VA-2" value="revealed answers" style="rounded=0;whiteSpace=wrap;html=1;hachureGap=4;fontFamily=ES Klarheit Kurrent RD;fillColor=#102924;strokeColor=none;labelBackgroundColor=none;fontSize=14;fontColor=#c8ffa9;" parent="1" vertex="1">
          <mxGeometry x="540" y="300" width="120" height="60" as="geometry" />
        </mxCell>
        <mxCell id="0-SrIZvd3cAVGvVJ-4VA-3" value="CloseQuestion" style="rounded=0;whiteSpace=wrap;html=1;hachureGap=4;fontFamily=ES Klarheit Kurrent RD;fillColor=#C7CFEB;strokeColor=#141419;fontSize=14;" parent="1" vertex="1">
          <mxGeometry x="410" y="300" width="120" height="60" as="geometry" />
        </mxCell>
        <mxCell id="0-SrIZvd3cAVGvVJ-4VA-4" value="ScoreQuestion" style="rounded=0;whiteSpace=wrap;html=1;hachureGap=4;fontFamily=ES Klarheit Kurrent RD;fillColor=#C7CFEB;strokeColor=#141419;fontSize=14;" parent="1" vertex="1">
          <mxGeometry x="670" y="300" width="120" height="60" as="geometry" />
        </mxCell>
        <mxCell id="0-SrIZvd3cAVGvVJ-4VA-5" value="scoreboard" style="rounded=0;whiteSpace=wrap;html=1;hachureGap=4;fontFamily=ES Klarheit Kurrent RD;fillColor=#102924;strokeColor=none;labelBackgroundColor=none;fontSize=14;fontColor=#c8ffa9;" parent="1" vertex="1">
          <mxGeometry x="800" y="300" width="120" height="60" as="geometry" />
        </mxCell>
        <mxCell id="0-SrIZvd3cAVGvVJ-4VA-6" value="" style="endArrow=classic;html=1;hachureGap=4;fontFamily=ES Klarheit Kurrent RD;fontSize=14;" parent="1" source="clFiod78sZzIFJFchtkz-5" target="0-SrIZvd3cAVGvVJ-4VA-7" edge="1">
          <mxGeometry width="50" height="50" relative="1" as="geometry">
            <mxPoint x="258" y="234.87" as="sourcePoint" />
            <mxPoint x="387.4607692307693" y="188" as="targetPoint" />
          </mxGeometry>
        </mxCell>
        <mxCell id="0-SrIZvd3cAVGvVJ-4VA-7" value="Question timer &#xa;deadline" style="shape=image;verticalLabelPosition=top;labelBackgroundColor=none;verticalAlign=bottom;aspect=fixed;imageAspect=0;image=https://cdn-icons-png.flaticon.com/512/60/60473.png;fontFamily=ES Klarheit Kurrent RD;labelPosition=center;align=center;fontSize=14;" parent="1" vertex="1">
          <mxGeometry x="370" y="134.6" width="70" height="70" as="geometry" />
        </mxCell>
        <mxCell id="0-SrIZvd3cAVGvVJ-4VA-8" value="" style="endArrow=classic;html=1;hachureGap=4;fontFamily=ES Klarheit Kurrent RD;fontSize=14;" parent="1" source="0-SrIZvd3cAVGvVJ-4VA-7" target="0-SrIZvd3cAVGvVJ-4VA-3" edge="1">
          <mxGeometry width="50" height="50" relative="1" as="geometry">
            <mxPoint x="370" y="160" as="sourcePoint" />
            <mxPoint x="363" y="130" as="targetPoint" />
          </mxGeometry>
        </mxCell>
        <mxCell id="kpx8x38Mn5n_9P3kcjEu-2" value="" style="shape=image;verticalLabelPosition=bottom;labelBackgroundColor=default;verticalAlign=top;aspect=fixed;imageAspect=0;image=data:image/png,iVBORw0KGgoAAAANSUhEUgAAAYUAAAG0CAYAAADdBTtAAAABWmlDQ1BJQ0MgUHJvZmlsZQAAKJF10D1LQnEUx/GvZhg9QPSwBUmTgZWZEY7mIEGDadHDdr2aBj7crkZEQb2AiJaaGyIiGtxsKWqLaAsKohfQHriU3M7VSi36w+F8+HH4czhgbVE0LWUD0pm8Hg5OOhYWlxz2V+z008EATkXNaf5QaFpG+O6Nr/SIxewPQ+ZfRzflndurM9/2QWE1knWP/J1veK2xeE6V/iHlVjU9DxaXOLSe10xviXt0WUq8bzpR9bHpaNUXlZnZcEB8L+5Uk0pM/CJ2RevyRJ3TqTX1awdz+/Z4Zi5i/iPVR4ggHiaYYZRxwmL/P/PeynyALBob6KyQIEkeB35JNFLExVNkUBnGJfbglvKad/59v1q2uQu+U7B21bKI7F7Yg+7zWua0Q+8dXGY1RVd+rmop2XLLY56q24rQfGgYb/NgH4Tyk2G8Fw2jfAJNz3Bd+gT+b2OhpKIOOgAAADhlWElmTU0AKgAAAAgAAYdpAAQAAAABAAAAGgAAAAAAAqACAAQAAAABAAABhaADAAQAAAABAAABtAAAAADvR7HDAABAAElEQVR4AeydB3wUxRfHH0kIoffeO9J7772jVCmKBRuiKDb82wUbNlRAsSGKCihIUTpI79J7772X0BLyn98kc+xd7lK4u+Tu8nufz2VnZ2dmZ7+7eW/mzcxuqpwlikYJhQRIgARIgAQUgSBSIAESIAESIAFDgEbBkOCWBEiABEiAPQU+AyRAAiRAAncIsKdwhwVDJEACJJDiCdAopPhHgABIgARI4A4BGoU7LBgiARIggRRPgEYhxT8CBEACJEACdwjQKNxhwRAJkAAJpHgCNAop/hEgABIgARK4Q4BG4Q4LhkiABEggxROgUUjxjwABkAAJkMAdAjQKd1gwRAIkQAIpngCNQop/BAiABEiABO4QoFG4w4IhEiABEkjxBGgUUvwjQAAkQAIkcIcAjcIdFgyRAAmQQIonQKOQ4h8BAiABEiCBOwRoFO6wYIgESIAEUjwBGgU/egRSBaXyo9qyqiRAAv5IIMTdShcqmVMeeqmZrZjR786Sk0cu2PYdA6Ur5ZceTzewRX80cJLcuHbLtu/JQO0WZaRlt8qycfl+mfrTKl10gaLZ5ZFXW+jwF4OnycVz4Z48pcfLqtOyjNRteY8ULZ1LCpTIKbduRMiJw+dlxZwdMnfSBjl97KLHz+lLBTa9r6LUb1NWtq87In98s9SXqsa6kEBAEnDbKGTMnFZqNillg7Nr4zEZP3Kxbd8x0KpHVbv0ISFBcsMxkYf28xbKqs915cJ1W4kZLPUNDUtti/e1QI68maT/222lZtM7bK9dvSlpVJ2Llsmtf10eqyvfDp0lsyeu97Xqe6Q+5aoXkmff7yh4RiJv3fZImSyEBEggbgJuGwVT/O3IKAkKTiWNO1VwaRRC04RIvdZlJep2lCSXK+T86Svy97g1utrXrnrLHBkqd7dNnylMPv3jUcmeO6NcOh8uP308X9Yv26d7BcHBQVKsXB7pqgwCWD7zXgdJrbj+/Uv0Nd3dGX0vV858meXVEd20QfC92rFGJBC4BDw2pnD25CU5su+MwD1Tonxep8TQ6k2fMY1sWnXA6fGkiDx59IJ8885M/bty8U4PIinOndBzPPFGa20Q9u84KU+1HiVz/lhvcxNFRt6W3ZuOyYfP/ikLp2/RRfZ+trGkTR+a0OJ9Pl2atKnl9a97SJbs6eXyxWs+X19WkAQCiYDHegqAsnDaFunzXGNp0qmi7NlyPBanJqoXAfl36mapVKdorOMmomSFfFK9UQkpdk8euXD2qirrmCyYsklu3Yw0Sey2xcvllRoqfdGyeeSiSr9r41FZOnObXRqzA4WDeqC3YtwumbKmk7qtysh15Z4xijau9NYyoLCb3ldJKtUuKiGpg2Xjin0y588NuvzcBbJIa+Uuw7jL6eOXZP7kjbJ78zFTtNNt2WoFpem9FQU9r+FxjHlERYkMf2WqXFY9iWljVwlcS47iikuewtmkTOX8cnT/OdkcY6C9cU21mpUWuIDyFckmxw6cky1rDsrqBbscqxlr/7kPOkpxdS93rD8iK+fttBuzipWYESRAAh4l4FGjsGj6Zm0UGrYrJz98OEcrNlPbjFnSSrVGJeXqpeuyduFuE223hUupz8DG0u2J+toVdedgNenwYC358Jk/5Mj+s7ZopO/9bCPp/mQDu/Rte1WX+x6tI9v+O2xLawLpM6SRAUPaS0TEbZtRyJU/s47DoK2jUXCW3hoHg9L3xTsD7Q3bl5OqDYrLx89Pli+nPaF7RubcbXtW1y385XO2m6hY27LVCum41f/ukr1bYxtWa4aIW5Eyesgsa5QOJ4RLm57VZMFfm2xGwZPXhHGm5z7qKDAKVuncr44sm71dPn95qlwPj23EkDZbzgzSQD0/Z5QRHdp/gjRqX95aBMMkQAJeJuBRo3D80HnZseGIaoUW0C1n+MGNNGhbTvuH56sW/K2bESbabotWdY/+DXTvALOFlvyzVdIpJd7rmYaCmUSDPrlXXuj6g6CVDGlzfzW5/+mGen/Gb2tl+ewdEn7lhpSvWUh6DmgkhUvlik7oxb9lqhSQkW/8o41Viy6VdS8Evv7dm4+r31H5Y/QyyZItvdz7cG0pWTGfPP56K4nLKKB3BNm3/cRd19pdLu5eU/932mqDcEC5v6ao+7huyV4ppGZO4drrtbpHTh6+ID9+NNfl9WE22pAnx8uFM1ddpuEBEiAB7xDwqFFAFRcpPzeMQuOOFfTgqKm21XVk4qxb+MT7vhDd4h43/F+ZNX6d7TD85yNnPCWlKuaXWs3LyMq5O7Sx6PtCU53mhw/myJQxK23pd206KuuW7pPhfz3m1YHKYNVT2br2kMwc/58+N1wxBUvkELi/YASeajNKLl+I9okfPXBW1wezitAaPqcGvJ1JIZUfcszSIzLpcP2PxkynNXFmO+ajedogw4i6w8Xdayqr3EVo6cM996GaboxxJsi5U5e1oh89Z4B0fKiWTPpumdPpwLD3nyu32N5td28U9Qn5hwRI4K4IeGyg2ZwdrXv4w+uqFmFoWLTNyVMwq9xTtaCcOnpRKdGDJqndFi3kDJnDtBJdv2SfVpxQnvjBRWN88WYQG+kxSweziab9HL0GwVogWqmLpm22Rnk8DDfNltWH7MrdvCr6+s6cuGQzCEgAVxBmEkFy5M2st87+GGORTc08skpWxeG1Ud21jx5+esdfBuWeg7jLxd1rqliriK7HhuX7JPzydbv7iB7AqWMXtKEuoqbVOhPcT1fjQc7SM44ESMCzBDzeU8DAMBQC/OrwKcNImF4CxhyM68fxMjAYC8HYww8Ln3U8bNvPrwZJISb9gV2n7MYubAlVAIq4WedK1iiPhmH8dqtBcKtcuRTdM3Bs6eK6r16+oQ1ckDImruTAzlOaXcHi0TxMuptq0drgXj+Z3ehtqlQyfHI/bRzNAXe5uHtNhWPuY5X6xeXn5YNMtWJt86n7iEWFFBIgAd8i4HGjgMtbqFroMApNlAsJRgGuJAhmHbmSa2osAILB3rjm3B+OcUcY5ZshY5irIm3K0p3pmpip40puK00PN4kzcRXvLK01bv+OaLdJjSYl9SA1DAkEA/T4WcX0CqxxieGSLkPsaazuXhPGdCBwpa1duMdaNbvwzg1H7fa5QwIk4BsEvGIUlqtXMAwYEiFVG5bQU0vzq7ULaDkf2nPa5VUf3B19DK6i6b+sFrSMrQLXElbznj15WUcf3BWdHm4IzB6Ca8oqcIPkK5JdR1WpX0y7sm5ety/TpMdUVEjWXBntFDHiqqq8EPjaw9R01uteeiWHPon6A9cJBskxjfNBNcby9dszzCG7La6v3/9a2sVhJyFc8sYYusqqNY+pqJ58zYi5j7eVsZz0/fJY9cN14V5h5hSFBEjA9wh4fEwBl4jphqvm79S+44Fqzjnk36mb9NbVH7iBMG4AJQVllzo02JYUK6Vf+aKrfPrno7YZRYd2n9KDvEj34if3CXzuRvBahH6vttSznGCIwtKFSo3GpczhWFu8SwiLwpCvhuWVHTBEFZSP/JAyWFDCmFLrbcFajJFv/qNP0653dRn8ZVftcrKeN5syXq9+1VXXzXHtRkK4QCHjmmDkajT27DUtm7VNr5nAOhSst1AeLptgfOiDcX1l6E997Kbq2hIwQAIkkOwEvNJTwFX9q1xImIUCZQ1XyuKY1beurhhpoAyHjX9YsM6gUYcKskLNMgpSWqVCrcKC1x5gmqYZrIWPHunxOgjMeBk952nZqabDhqtWf2k1SwezfMZ+Ml/3LAoNyClYPwCF5UywZmGeWnCG9zK9oAxMi66V1cKus1phXlMGbuXcnXoMA9MpXZXhrNy7jdu4Yr/uITw6uKV+GRxeiHdk/xk9IwkcCpXMpRfKjXjjb+nUt5ZtfAXnSygXDIT3KtlIc/HkwC56cuD+5FttZNDH96p1K01kpWog5Fa9ufI1CmuXHq7Pk72Tu+XMfCRAArEJeKWngNOsW7xH8JoGrF1YPGOryymY1iphFfSzHUbLNjXNE1Mrm6tBYrwlM50aN1gyY5saaB2rZxuZPGjtDmj/jWxaeUC95iGNYHATijutyjtm2Dy9RsAoPLSI4xpbwLx5nAMtW7RyYZiwSnjoUxP0qlqcE35+aw/G1MMb239+XSvPdByt5/jfVOs6MM8fazWwShnjLh8N/FNmT1jn9NQJ4bJsVvQCuuqq9xMXF6cniCcS75Z6+7HftZsIrr2OD9bUkw5uXL+l34v1+ctT9OLBeIrhYRIggWQgkCpniaLOR0qToTLWU8IoFFGvi8Y8f8x1Rws4LoFiw9tDL6lXYWNNQHzpXZUFF0c+NQaCdQJmeqirtEkVD9cV3imFXhcMAtxdCb0+T3G522s1PI8fPGcbD7rbspiPBEjA+wR81ih4/9J5BhIgARIgAUcCXnMfOZ6I+yRAAiRAAr5PgEbB9+8Ra0gCJEACSUaARiHJUPNEJEACJOD7BGgUfP8esYYkQAIkkGQEaBSSDDVPRAIkQAK+T4BGwffvEWtIAiRAAklGgEYhyVDzRCRAAiTg+wRoFHz/HrGGJEACJJBkBGgUkgw1T0QCJEACvk+ARsH37xFrSAIkQAJJRoBGIclQ80QkQAIk4PsEaBR8/x6xhiRAAiSQZARoFJIMNU9EAiRAAr5PgEbB9+8Ra0gCJEACSUaARiHJUPNEJEACJOD7BGgUfP8esYYkQAIkkGQEaBSSDDVPRAIkQAK+T4BGwffvEWtIAiRAAklGgEYhyVDzRCRAAiTg+wRSrVu3Lio8PFxu3rwpkZGRcvv2bfVR+Cj9s1YfcRQSIAESIAH/I5AqVSq7SmMfv6CgIAkODpbQ0FBJly6d/oWEhYXpg6lTp9ZGATlhGCA0BBoD/5AACZBAwBAwBgIGAWKMQpo0aQS/EFiHkJAQvYOegmMvgYYhYJ4FXggJkEAKJ2AMAjCY3gKMAmwAegv4hcAyIBK9A1euIyvHuIxEXMesZTBMAiRAAiTgGQJWRe9YYnzHcBw9BvxgGOAx0kbB6jpy7Ck4nsS6TyNgpcEwCZAACSQ/gbgMgbV2SGfSomNgxhdC0F2AcnfVS3Cl+F3FW0/KMAmQAAmQQNITMMre8cyO8cYwwCAgHNNjCLENKEPRx6Xs4zpmTp6QNCYttyRAAiRAAndPwFHJOysprjTGKCCfzSig2wAxytxsdaTlj6t4a15L8niDcZUXb2YmIAESIIEAJhCXInd12XHlcXXMxJstyg5BdwHiSkl7Kl6fhH9IgARIgAQ8RsCqzK2FuhOfSo0lOF2VBmOQUIPgLJ2zOGulGSYBEiABErg7As6UvmOc4745E+JdHUOaEJPQ2dYxo1H0Jt66b8KmHKRxjDPHuCUBEiABErg7Akb/WnNb46xhpHHct+ZzDCNtKqW4XfYUTAYksSZLbNiUY91ay7DGM0wCJEACKZ1AfIrcejyhYVfpHFk77Sk4U9imQBxD2KSxhk3hOGaOmzhsncVZjzNMAiRAAiRgryuN7nXk4hhv3Tdhs3XMC13s6lisnoKj4rbum7B1i7B1Hyc3+45hx4pxnwRIgARIIOEErIrchK1bhK37KNnsO4ad7SPOaU8BBxzFKHqzxWI3CPatcdZ9E2/Kctw38dySAAmQAAk4J2BV6khh9rHFz8wgNbmhZxGHLY6brTke3zbOnoJR4tYtwuaHwh1foue4MtrktVbEWZz1OMMkQAIkkNIJGOVv5WDisMXPGASzb9admX2zRRkIW7eOYX1Q/bHrKViVtTVsEiPO/GAMIOGpzsqp0G1yNeSkqJdlmKTckgAJkAAJJAEBZRokfURuyXWrrKSLzK7PaIwDdowxMFWBDjdx1rA5busp4KBVzL7Zmh4A0pjewVU5IwfSLaQxsIJjmARIgASSgQCMQ5HwxpJecmilbwwDDIC1R4GqGaNgqmndT9DnOM34AQqAQcA+tqdSb6NBMFS5JQESIIFkJABPDXSyVUeb6lh1uIlztXVqFEzvwGyRGWHryW7duiXhqU+5KpfxJEACJEACSUwAOhm62aqrHfU4qmSNc6yiU6NgTWQsjCnEGIeIiAj2EqygGCYBEiCBZCaA3gJ0M4yCVWejWkaXx1dFbRRMZleJcRw/FIofTogTU0iABEiABHyLgDEKRl8b/R1XLa02IFZPwRy0FmSNMyeiUYgLMY+RAAmQQPIQgG42etqqu1EbZ3rdsZaxjII1gSnQFGZOhC16CxQSIAESIAHfImDGE4y+dtTj8dU2TqNgzYwTGCuDk9IoWOkwTAIkQAK+QcDoZ6OvobsTI/EaBVOwsTbGOCT2RImpFNOSAAmQAAncHQFHHe2ow+MrNUFGwRRiPZkxEuYYtyRAAiRAAslPALrZqqtNjRKqs4NcJbTGW8OJPYFJzy0JkAAJkID3CcSnr50dR61MvNOegjnorPrmmNk6S8M4EiABEiCB5CFgdLPZOqtFXMecGoW4CkFhcRXoLC/jSIAESIAEko6AVU8nVl8n2Cgk3eXwTCRAAiRAAslFIMFGwR3Lk1wXx/OSAAmQQEokYHoHVr2dUA52RsEU5JjZVbxjOu6TAAmQAAn4HgFXOtxZvJ1R8L1LYY1IgARIgASSkoBLo+DMgiRlxXguEiABEiABzxOIT7e7NAqerwpLJAESIAES8HUCNAq+fodYPxIgARJIQgJ3bRTi64Ik4TXwVCRAAiRAAjEE3NXNd20UeAdIgARIgAQCjwCNQuDdU14RCZAACdw1ARqFu0bHjCRAAiQQeARoFALvnvKKSIAESOCuCdAo3DU6ZiQBEiCBwCMQ4guXtGvTURk/Yons235CIm5FSvY8maRltyrS+v6qEhwcbbd++HCuVK1fTKrUL26r8pIZ2+Tw3tPS65lGcuHMVXn94XG2YyZQsVYRefz1VhJ1O0qm/7JaVi/YLccPnhNJJdKkU0W5f0BDOXP8ogztP9FksdtWrltU+r3aUn77cpEULZNb6rQso4/fuHZLpoxZKUtmbJXzp69IWNpQKV0lv/R6trEUKJpdpzF16q3qZ/LhwNpFe2TrmoPS98VmOp35c06VM/rdWfoYGDRqX14696tjDnNLAiRAAl4nkOxGYck/W2XCN0vlsf+1lPI1C2sjcOroRRk/crEMfXKCvPltT0mlFDjirly6YQfk0vlwOXviko6LiIhUhuGKjJj+pF2a1KHBev/P75bLltUHZfCXXSVD5jCBAv7m7Zny/Xuz5TFlNN79sbdOt2P9YZn07XJ57eseej80NBrRGXWenPky67ibNyLk5Z4/SY1GJWTo2AckS/b02pit/neXvP3obzLo43ulbLWCgjqdPnpBxn66QCrXKyZp04fq/FcvX5fTxy7qsPXPpy/+JeWqF5IXVP5bNyPkw2f/lALFs0vNJqWsyRgmARIgAa8RSFb30dXLN+Q7pZTfVoq/Up2itl5BrvyZ5dn3OyhjkErmTdqQ4IsPCgqSLDnS2/3SZwrT+a9cvCY58mTUBgER2XJmkP7vtJVuT9bX58U+fpmypJOQ1ME6jH0YEEeZOGqJVt59nm+iDQKOI0/dlvfIK190kY8HTbZlSZshje71/PrFQlucq0CeglmlwwM1JTQsRFDvTFnTycWz4a6SM54ESIAEPE4gWY0C3EYFS+aUHHkzOb2wuq3KyKaV+50ecxZ54/otWThts90PPQxI6x5VZc3CPfJi9x9lvFLqh3af1sYje+6MzoqKM27jygNSv/U9TtOUrJBPxx8/dN52vONDtWT9sn2yf8dJW5yzwDND20vGLGn1ofArN1R9d0t11RuhkAAJkEBSEUhWowBffOZs6Vxea2blljl36orL444H4HJZqxSp9Xfu9GWdLG/hbDJm8UDp/lR9OXbgrPzvwZ+1gTi894xjMfHuo96ZVN1cCdxJSGMkJCRI+in32Ki3Zqiv1plY11uk+eylKbqHkVX1VigkQAIkkFQEknVMoXCpXPLXDytcXuuhPacln1LmEIwrREbetkuL/VRB6kCMZMiUVl78rLPZtdtiTCBNWGrtn4ePHop37Cfz9cDu0LF97NLGt4N6H1F1MwPK1vQoF4amsOoBXQu/aTtURY0pzPztP5nzx3oJS5faFu8s8NuXC+XiuXAZ/FU3Z4cZRwIkQAJeI5CsPQUoznA1rrB17aFYF3jrZqTMnbhe4EKC5FCzcXZuOGKXbuf6IzreLtLFzheDp8miv7fYjsLI1G9TVo4dPGuLS2igeuMS8ve4tU6TL/hro56lZMYyrInQW/h9xCK5pBS+K5k5/j9ZrAbfX1cD3ehhUEiABEggKQkkq9bB4OyAoe3ksxen2BmGyxeuybDnJ0nh0rltU1CrNiguK+ft1NNWAWiHMhDw01unqMYFrl7rsnrQ+trV6NY7ehl/j1sjpSsXiCub02Otu1fVs4O+fnuGYGqqkeVztstPqveBsQFnggF0jG1MVLOtnMmKOTtkghrvGDKmT5xuNWd5GUcCJEACniCQrO4jXACU+guf3iffvDNTrl66rmfdYBygRdcq0ue5xrZrhFFo0aWyDOr8vWRTg8NYA/DgC02ldKX8tjTn1ZTUPrU/te0jgHUGcClhzcOpYxfkyVYjBeMLF5TPv0zVgvLkm23s0idkBy4rKO6fP18gjzb9UvdWUB/MHnrv5wekUImcLovp3K+uMk4bnR6HQYFBHNTle9vx+m3L3lUdbQUwQAIkQAKJIJDq9m21qitGzCtXsVXxOhbbyMhINec+Qv9u3rwp169fl/DwcLlSdrXJ6pEtZtxggHbC10ukZPl80uHBmrHKhVvJrBm4G/cKFsedPXVZcuXLoscpYp0gkREYQ4CxyZo9g55KmsjsTE4CJEACHiWQYVtNSZcunYSFhUloaKhyQ4foX3BwsGDaPgRbTPmHmK0JJ6v7SNfI8iedmtOfX60Gfux/rQQGAovEHAWL0fIWynrX/na4rHLn94xBQN3AFeVhbQGFBEiABPydgE9qMszV79G/gb+zZf1JgARIwO8I+FRPwe/oscIkQAIkEGAEaBQC7IbyckiABEjAHQI0Cu7QY14SIAESCDACNAoBdkN5OSRAAiTgDgEaBXfoMS8JkAAJBBgBGoUAu6G8HBIgARJwhwCNgjv0mJcESIAEAowAjUKA3VBeDgmQAAm4Q4BGwR16zEsCJEACAUaARiHAbigvhwRIgATcIUCj4A495iUBEiCBACNAoxBgN5SXQwIkQALuEKBRcIce85IACZBAgBGgUQiwG8rLIQESIAF3CNAouEOPeUmABEggwAjQKATYDeXlkAAJkIA7BJL1IzvTfl4tuzcdlYbty0uNxiVdXsfR/Wdl86qDkjZDqDRSaV1JlPqy6BevTlOfD70tjw5uKVlypJeF0zbLf4v3SPPOlaWS+l4zxfsE8InSmC/92Z1s79bjMmXMSvVd7QLS/oEadseSa+fQ7tPy/QdzZOfGo3LrZoR+Tvq/01ZX54/Ry+TQ7lNSvFxeuffh2slVxXjPe/N6hHz1+nTBlwufeju67vFmYgIScEEgWXsKtyNuy79TN8ucP9a7qF509NSfVsmIN/6WTwZNlgtnrrpMu2fLcZk3eaOsW7JXMmdPr9MhDuc4euCsy3w84BkCMAYTRi3RRthZifi2Nu7F1rUHnR1O8rgTh8/Lc52/08/LLfXp10Ilcor5Tjkqs3H5fl3fLauTrr74DO0Hz/wp18NvJphHRESkrueyWdsTnIcJScAVgWQ1CpXrFdP12rTygNyOVBrFhaxZuFsfgdJZuyg67Czp+mX7dHTlusWctlSd5WGc5wh8995s+eXzf+X27dueK9SLJY0fuUTQym7Qtqz8tvpFGf7XY/L0u+1sZyxSOpeUq15ICipjkVTySs+fZNmsbUl1Op6HBGIRSFb3Ef7psuXMIOdOX5HdW44pt0L+WBU8sPOUnD52UdKmD5VrV2/K6gW7pXmXyrHSIWLD8mijUKV+tLFxmoiRXiNw9uRlr5XtjYLhzoK0vr+ahKULjXWKfv9rGSvO2xH+xtDbPFh+0hNI1p4CLtf0Fkwr3xHBmn936Sj4dOEzXb9sr0TcinRMJjeu3ZLt6w7reFNmrESMIAELgUvnw/VesXvyWGIZJIGUTSBZewpAX6V+cVkwZZNsWLpP7u/fINbdMK6juq3ukUN7zuiu9ZY1BwUuIqtsXXtIDRRGSsHiOSRHnkzWQ7YwXFRzJ23QxuOgGkDMnjuTlCyfVzopgxOWNrUtnWPg3KnLMv+vTbJ/xwk5rOqA8ouVzSO1mpWSUhVj924c82N/4fQtcurIBanZtJSgh+QoOMfGFQckc7Z0UrVBccfDeh9uhaP7z+njJVS9rbJWudg2KjccxlBgNMtUKSD3VC2g6lhau+b++mGFag2nlo59a1mz6fDVyzfkn3FrNJdTqleGAfrCJXNJ+z41JF+RbLHSO0bM/P0/uXzhmhzZd0YfWjpjmxzYcUqHw1QPr+ODNR2z6P21i/bIOjUJYI9qsacJSy2FS+WSDipt7gJZnKZHJNw9uIc7Nx7R58ieO6MUvSe3NGxbToqUye0ynzkAX/20sav1LnqeEAx+4/yQ9JnCpF3v6jq8TT1TW9Yckgq1CiuWBXUc/iA96tH5sbqCcbHVquGCgerLysg891EnWzo8b/9O3aSO75ZjakwLvRHwbHZfJalYu4gtnbVON67f0vGTvlsuqUOj/z0LlcwptZuXtqWPL3Bw1ylZ/M9W2b35mB6bQP7GHSpI+ZqFY2Wdp1ieO3VFWvWoqp89xwT4n3L27Fw8Fy6zJ6yTbLky6J77stnbZdX8nfqe5MibSU8caa3KTBWUSheJcT48v3u2npAMmcPknioFpesT9eL8v7vbZ9p6f86p3uuCKRsVi+NqPPKK1g/4n6jTsozjpca7f1ONO83/a6PsUVz37Tipnxk0KMrXLCR1W97jND+4HN13Vhq0K6e9IrPV+Oku9axg8gye87LVCkrb3jUkJCTZ2+e2+ie7UaisZgRhpsqO9YflumrtW5UzFM2ODUcED1lR9Q9fs0lJ/WDBheRoFGyuo5hxCtsVxgRuq5lJrz/0i2D8AoKbsHvTMVk5d4fMmbhehvzUJ5YCxBgGHvwxw+YKFCcED/l+9UDAWE38ZqlWIA+92Myp+0FniPkDpfDbl4u0K+zpIXf81ibNjF/Xyng1SBsaFqL82y/ZcUAaKJhRb80Q/DNaFcTVS9dl5Fv/yOK/t5qi9LWh1/TXD6JnXA18v6P8/NkCrewdjQIYvPHIOLly8bq+D7kLZJVNK/brQdbpv6yWJ15vHe9Mob9+XKGU3jnb+WHkjcA96MwogMVvXy3SyXAvIpRyRW9x1vj/5MVP75PaLWL/0x5Q3IepyQaYMQSBAoehxr2Y/P0K6f1sI+n6eD2bItKJHP5gIBcsrILBcSN5Cma1GQUY2V+/WCh9X2hqZxQmqLGIyxev6edx2POqPnti6pMxjc0o4PirfX5WSvKkLhrPMBQB7st8NRkCs+hwnXienNXp9xGLTZV0Wus9tx1wEoChfX/ARG20DNdt/x3Wz3HXJ+rra7Fm+0c9dzAeaOCgQeIoUITOnp3zyuWL+JIV88lFZQzHfDRPZw0ODpJ9208oN+8uWaH+t975vpc2oj98OFcfN3XCID5mBn7+Vz/JmDmt3WndfabN/Slfo5AMeXKCvleoF8a6YLwxGaVxB8X/s852541rBw3Rr177W99DpIPOgn7AJIRpY1dpfTRgaDvB82OVRdO2yPI523X8xNFL9fOAvEFBSv8o7ktnbpM5f26Q939+QDJljc3fWlZShZPdKGRVSqNw6dwa1pZVB6S6ZWoqHnAoQzNdtVqjEvqfCC6lx19vZcdoveppQCq7GE84rP5xMT6BB6F6wxLaFXVg10n5+u2Z+h/167dnaMNgLRRK8dshsyQkdbD0Ugqnfuuykr9YdkHrAy3IMcPmyd+/rJGThy/IW9/1tGaNFUZeKMJV6p+lvxrMdJyyuUQ9HBC0QNeoNGhZWGXz6gPaIKA1jZYfBA/l24/9rusP5fuo8oGXr1FYt0gw22r57B1a8b7ae6y1KFsYrcB3Hv9dG4TeAxtL217VtWLAPzz+ob95d6aMHjJTTcnMY6cUbQXEBDAN8rpqdU/6frky7kek25P1pVSFfPpo6jSxHzHUG8ofTFt2raKNPmYmgQ9mon31+t+qdV5EK31zLtTplV4/aQUKI4Nz4NmB2xAKCIPcYz9dIBmzpFNjBFVNtlhbHEcDADLsuUm6h/PqiG76eUBcGif1RbwzQe/vxJHzeroqeo6mZY+0w1+Zpp9ptEgffqm5bnCg0bNuyR75/v05sujvLbpn0021ljMopfjayO76FJ+/MlVfI55TUxdXPV9ndZqrFEyNxqWk98BGUqBoDl0WWso/KqX9h2rE4H8JrVNPyur5u+TJt9ro3kga1ePeqMb2cB3oHcxSjSr8H/d6ppG06VlNsqhZgegZfv7yVG1Mx6mJCdZptO4+09brAuPCqlfe79WWmnWEmnK8Yu5O/Vzj3lVrVFKadKpgzeI0jLGn1x74RU91b9i+nHR6qLYUUf+HMJi4ll8++1ePZ2KSwKgZT9k9t6ZAzLgLv3xd3vz2fqlQs4jg/2KXavDiWUfD4aeP58uz73cwyZN16xN9lqoxitxxXGHNwujxBLhcIHigoGyOHzpvc1Ug/sLZq0rhn9Qt5IpKmTiTHRuOytCxfXQLAd3XoOBUgq7fa6O660FsnBtTFI0cP3hOxn4yX6f78Ne++qGGMkaLI2e+zPph+nrmU5K3cDbdUsU/Y1yCvAWKKoOi3ES7Nx+1S4qeB1qR6A1Blij3i6MsV91QiNVYzP1zvTYIeQtllRH/PKlblHCnoPVZoFgO6f5Uffnwt74ChatFKWOroHcGdqgXXHempQhlCwMBlwz+SVfO22nNFitcRfXOoPzgjoPAbYV9/KorQ+4ouNauSqlDUaAFDYHiwz9FmcoFtPFbPmeHXbYf1FoC9NbQ2n38jdbaICABlBCYwCjjnqL1ipamK0kdGiyoL36hMQYArhwTV1bNNkqowF325bQnBAPSTe+tqGcxIS+Uxfqle/V9QE/LuODQC4abocdT0W7SFTHXiHoYXmiAQGqrlruJQ2s8oZJVuf5e/aqrnl4LHnjW0Ts06yxgjD0pN8JvCVy7cDXiXOCLht1DyhBC0LgopSaQoAGA5wrPZkn1P/zsB9EKEEraKu4+09ay0Oj54JcHBa5W9FDgvoMReOilZjrZzASwgCv2M2XAsPbp4Veay8ufd9ETYvDcZcySVj83n0x8RD+DmCQwWjUinQn+xz+e8IjqXZbS+gb1wbOGBgnu07zJG5yOlTory9txPmEUMK4A2aC6lEZwE/5bvFf/01eqU9RES40YAwEXkpGNyt0B5VVG+SmdzSJBOnTrnA0owtBg2iHkiPL9GZmuegBohXZ8sJb2z5t46xbui6ffbaujJn27zHrIabhem7I63lHJLpkR7frprpQFegKYdmudp45FeUZJQlEbmaz8zpBHVUvIVdcTStbVQjHTskX3/4pqxTgKeg8fjHvQ9g/uePxu92GIjN/esQwoQogZn0AYvQS07NIr9wzq5EywwKxqgxKCwWPjSnSWzpNxFdVzCYPqKMHqHx7KD/cNPQlHaarGFF75oqs22I7H3NnHfYQf35nUbWW43nnGnaVLbBzcoi27VYmVzYyLwRXZpGOFWMfxXEKxopFkxnaQyN1n2nqi2i1K6/tgjUPY+P+PxoyBOR637mNcA2M0MGSdH6ljPWQLQ6k/+WYb3UOA6xTPq6OUVteLBpujYG0MenTwiBxTDVFfEJ8wCuWqFdKtNsDH9FQIfK9o8cEgmBYd4jGuAMHgnpENZn2CC9cR0hUu5Xquec68mXVR1psJvyjEKCm94+RPpTrFtCE6qm6oVZE7SSr1WkcPRsU2Ctv0PwiuDXPm0dKEm8nINsUCdSuuXBSm1Qk3E86JlhlaH3FJA4shsaaDIs2VP7N2oTzVepTA7wv/vPknRS8IbhxHV5e1jLsJoxeDHpczcXYvDqjnAoL6Htl7RrsB4Qp0/JmezmGLcXd2Dk/FlVD3w5ng2uCjh7zed5wMHzxN+8+hACG4Z7jP1udaH3DzT7AyRAVjXIuORRmu5057dtpw1lwZdcvX8XzmXqBxh+fImcDlCbka0yDxxDNtPQ8aWM4EdQN7jM+hfnHJvu3RY0K4nzD0rgRllo2ZjLB3W7TusKZ1VRekgecBYp4PvZOMf2I7fJOhMhhcRWsdLhwMQKGLtyamJ+Co8NDah6thuxo8g9FAa930MOACcCXoEbgStOwg1tWscEdBMJspLoHCLFgihx60hvJCC8iVoO5w9WCgFK4q9F7wAMFVBSWBllN9pcDHDV+oXUjmlR5mparVdYQxA7RE8xXJrrufrs6JeFfXAOX07pg+8r3yx69T7g7MMsEPSq2aGndp1rmimi1VWiuxuMpP7LEs2V0PqAWHRP/jWe8FxoMgmCQwoP038Z7uRBK1uPKoe+lKnlWD+2FpQ/UsIMzwwQ8CV1CzeytJIzXQCfeDJwVjE66MrXnGxcGF6O75Xf1fGQWaRjHAc+ZUHFobnnimrefJks31/3yQi0aJNT/C+xOoB5AWrX40quAqcnSbZnEyiI88EFf3LPpo0v/1CaOAy8YAMYwC1iHAKJieQI2YnoEVDQbL4A+EewmDoFjcBn9myfIJ971ay3MWzqweKMzIuaRmQLlyzZh8l89f00HkiU/gf8V0Q/QW4OddGuM6gjGAwB2BKauYqokWO9xhzsYTjELBDK34BDNhIHgdgqPgfG+rGSJopeAVFHhPFGZ8gT9+mDY3bPzDTru+jmV5ax/KDoJptpjOGZ8UUJMBkkLSZwxzeRqMH2CMBOMfmGGC6ZqYqYLZXvj9+NFcPQ5idY26LCwZD1y7eiPus7tuPMedz8lRTz3TToq+6yjT44EeiE8uXQjXSUye+NL76nGfMQpV1bgCprVtWLZft6IPKzcB3CXO/HAwFDAKGIg2Cq9S7aLxtpgTcxOKqbnvGBDFvH9nfmNTFnorJ5XfGP5ux+loJo11i1lIVqOAQWUo/hpqJoQR3VtQszKgSNAaxUAx1kPkzn9n/j56S+glQZnjfVBYW+BKcA1wE506elFPg4N/1Aj8+yEhwWq+eUbpoubd44fBNRjob9TMrJNqbQWmZSbnzIjCMS4RzN7BDBZ/ELgAcV/AvXnnSvqHcS+4JTFojl7PCDXz5Lv5zyTr5ZhWKlw3zsRMNY5UU4a9LZ56pj1ZTzMOif+h+GRfjNsIesufxbljNxmuqIialgrFBiU36dvoAVQz68ixOmacAVPd0LKFuJqK6pg3ofuV60UPfo9X88Uxi8GVjFMKE//sGFtw6A07zQL3AXyI2/47pGeowI1USw2ew4VmpEHMgDQMhuklNHSYooq0Zq3GuC/+NVljbeEznfj1Ummhpn5CsKjJCNYJPNRguJ7SaeKwxQwY9MZ6PtNQR5vXQVjTOAurqddaIm95VoHg3UNoRR5UXXnM7XYlWESHN5smt8CF0Lfe57Z1GKY+eD6gMAZ+0FFHYRYd1ihYJSjGbx3hYYbWc1jDeQpGNzSOHXI+yIlJD2iMoEeKhpq3xd1n2tP1w5gaDOcCtWjtiGokuhKsRYArGOMkcY0fuMrvS/E+YxTwD2MeiNl/rNOMHMcTDDj43jHzAw8q/gEhcY0nmHyJ2bbsWlmPc2AWzEcD/9SDUtb8mC3wp5px9LdaCYwW++Nv2K+bsKZ1DNdTLiTkH/nmDH0I4wlWya9cOpieijntWJQGNvUd0iD9I4Ob63GI2WrxHRQ/xhisgl7MsOcmy3m1ktOcY4kyCjBiELi70CvAIjwzuBx9JPqvmQ1hBretx5yFs6veCwSrxT0pGBR85JUWut4fq8VrUKaOgpb3N+/M1NOIzetOHNMk1T5cbujBLv5ni56D7nhewxWNILy6xSreYmg9hzVcIqbXOHXMqlhTIjHzBlOta8WspjZTaK35PR1295n2dH0wHoeV12gYvt9/ou7pOZ4D62RGvP6Pjh7wXnvdqHJM40/7d5qnPlBruJCwyhEKE3OazQPrrGqYqYOHFooQg7cJcd04K8dVHAbKnh/WSd54aJz2/29Vi9Uwnx0PCdw529UiLbiX4Pp5TrX80PVNqGAWEpbio5cApYBFNI5SX/UW8MZRnAvzmZ2VjxYcFv6MVK8Vx/x8TIfDwiS4LA6qwezNSlFimiLmZWPGD1owmOGFXgoG9jGVEP7uzasOyBMtR2rXDFxleNUFFCvcV+g1tH+gpmP1nO6XV2VO+XGlNlBYFwLffsHiOaVV99hTFp0WEEckXoKIXiHq+3Tbr/W8cLyKAz3LzcpXD7cMnoXO/erEudAujlN47BAGHLEoDb2WQd1+UNdfVY934RUWGK/BKnqIWTtgPTHuC3pmHwz4QzV8iqiWZ0a1uru0XpRoTeepcNue1WW6eu3HLvVdk4H3fqe5plOvJsHzDdZYf1FHnR+rdtEaxtoXb4q7z7Q36tZzQEPdQ8VivEGdv9cNUjTacD/hVsKCTTTcsKDSVUPWG/XyVpk+ZRSsLiCM3gO0KzGrnHHcWy/Ag6EZ+c9T2qf+z69rBO8xMYIuJR6Ap95uY5tSZo7Ft8V6CvjwodAw1c3Z7AxMI4VRgFjXJjiWDX81pkZ+8dp0/U4WM78f7OB2ee7DjrZV4jBG+r04aqUnlA/O++bo+2X8yMWC1x1g7MAqePD7qld4IG1CBK+mgKKbrj6eBIONH5SKJ4wCrmfwl131KyKwkhyvijCCngTeTdRBGS/TIzLHkmsLbrmU0UYvDDysggZPT7Vwz5lR6PNcYz07DWstzKtLYMyxUt0bArclVngPVx+nwrue8HxAMPcejYan32mnJixF6VdRQAFiUoeZQumN+qBMd55pb9QJDaN3f+ytZ5D9rFbNwzjgZwTv3OqvVnQnZuGjyeuL21TqfSA2n4OZBoiteSc+tpGRkWrmSoT+3bx5U65fvy7h4WrBU1n7h90XL9BTdUIrFN1++FXRascKZU/PM3e3rnAB7d0W/UK8khXy68HvhJaJQVwsRMIrO/ASO7TYEuo2cjwHBq/Ri8K6DRgWGEBPy5njl/R0QUw7LKqMIlaI+qJgTAfuLkyTva3+r3Lly6J7UGblsqs6Iw8mMOAdOZgYgFfHe1PgUjx19IJ+9QQaPJgB5437lthrcOeZTuy5EpoejTmsX8AMMzzfcB/7kmTYVlPSpUsnYWFhEhoaqv43QvQvODhYP0+oK56rVDGtbrNFPMI0CiBBIQESIIEAIeCuUfDN5lWA3BxeBgmQAAn4GwEaBX+7Y6wvCZAACXiRAI2CF+GyaBIgARLwNwI0Cv52x1hfEiABEvAiARoFL8Jl0SRAAiTgbwRoFPztjrG+JEACJOBFAjQKXoTLokmABEjA3wjQKPjbHWN9SYAESMCLBGgUvAiXRZMACZCAvxGgUfC3O8b6kgAJkIAXCdAoeBEuiyYBEiABfyNAo+Bvd4z1JQESIAEvEvCpV2fjTY0xL+6Ldcl4jTTe4vjwy8194u2NsSqYQiPwzn18iAXfM8AHe/Atgerqq214LbSzV4KnUEy8bBLwGwI+01PAp+6+GDzVJTi8mx8flr962f7zhS4z8IDXCQx/Zap8+Oyf+uM3eBU0PiW5Vb2Tf+wn82VA+29ifa3O6xXiCUiABNwm4BM9BXxd7Dn11Sd8qYviHwTwhbx56kM3+PTka6O6Cz5wji/mbV17UH9xDB8hGfnGP/K/kd3844JYSxIgAU3AJ3oK4ar1jw+yUPyHwFT1eUbI8x910gYBYXytCx86f+WLrvqjMPh8I74TTSEBEvAfAj5hFPwHF2sKAviaGD7bmDlbOilfM/ZnItNnTKO+3JVbw9q/8yShkQAJ+BGBZHUfHVIfl185b6dcOHNFIzt36or+6LvhV019p7m4+tSio1y+cE1mT1ynPqZ9XH1k/oLkL5JdKtctKs06V3Y5UI0y8HHyFXN26HxXr1yXokpxlaqYX1p0qyz4BGFCZPfmY7J+6T4pXTm//nYxvm2MD8efOnJBfaQ+hzTvWlmq1Cumi4I7Zc4f62Xjyv36M574xGXNpqX0t29dDagjIz7svmnVQdm/46Ttk5YlyudV366tLPimblyC+oHpfvW5wNPHL0oBVadi6pOBTdS3kvEZUWcyZcxKuXk9Qjo/VlfOnbwsC6Zs1IxwX3BNtZqVljoty9iygtW4FS/IcfWJSVdy7Wr02I+vfbLUVX0ZTwIkEE0gWT/HuXD6Fvlk0GSX92LAkPbS+v6q+vjATt+q7w+fkHd+6CUjlK8aHxCHuwIzlvD9ZEjF2kXU8d6xZr1AOf/21SL1EfUl2u+N7/mGhIbYXFZQuC9+ep8a08ihy4nrDz7CPnrILOnSr64c3HNaf5weShKtZyMPPN9EevRvIO8+MV5WL9ilDVUqNQiLekDwgfvXlR/eUU4dvaiu7W+7j4Ijn7m+vIWzyTND2+vrdMyLbyz/8tkCmabqZ9Jb8+Ibv5i51aZn9ViGs2f1j+XyxWsy7PeHZMiTE3QY14Tvc4MvpHGH8vLiZ52jd+L5u3vTMRnU9Xv97dqxS56XNOpbthQSIIGkIeDu5zjjbnZ6+RrK1ygkr43srlu03w6dLXkKZpVHB7ewnbVYudi9BCjZDOpD2S98cq9u5YtSWmiJj3j9b9m08oD89cMK6f5UfVsZCIz9dL5M+m65/hD9k2+2kYp1iuoPvZ84fF7GqamuME5vPfqbfD2rvyS0ZRuuWsIHlGvk3R97axfKrRsReuD1hw/nyK9fLpTqqpeza+NRefnzLlKjSUnB7JzVC3bKF69O1z0BTOWs36asrZ74QPng3j+pabcXpXi5vNL3hab6g+1pwlJrV830catlwV+b5PWHfpFh4x+WMpUL2PIi8NmLUwQ+/Cw50svDLzXXvv3seTLKUTWrC72j8SMXy6i3Zsg1NXYDg+ZMFv29RQqrD7b3e7WlFFG9i4ibEbJi7k755t2ZmlG1RiWlSacKzrLa4sD0vQETtTHp81wTGgQbGQZIwD8IBL/11ltvO6tqVEwTEVv80GrELzIyUiIiIuTWrVtyM+dRZ1kTHJcuQxrtnkibPo3ADZOnUFZ57LVWOg5uCyh/I7PG/yfnT1+RrDkyyDtKEedTreZg1eLHD+4jzI/HjJijB87qOfIm3yHVmh/+8lTJkDmtfDbpUSmm3FGYOglBXN1W9wj83jvWH5HUaUKkfI3CJqvTLRT9f4v3SGTEbXnp087aIKAOMCZQ1McPnldz9k/K5QvXpesT9aRB27K654KWN+qIZvrG5fu1UcK5jYweMlM2rjggtZuXlqFj++hrgkFA2dlzZ5Q6qneRKWs6WaOm5m5T0z5bdquqjyE/lPmEUUskZ77MMmL6E3JP1YK6lY7rzJwtvb6mGmrtwLxJG2WzMpz1WpfV4wHm3JO+XS43lVErqgzB/0Z00+dDXhgyxGXIHCZr/t2tp5i2UO4xVwKD9kqvn+TM8UvSuV8d3VtylZbxJEAC3iEQejq/pE6dWumYEOUWx1TxINsvVYzfGltr2NQEcQlzpJscPrCt2rC4hDlxR1RrWEK3Ss+q6a03lCvFCNw9EUqBd3m8rstFb92fiO5ZLFbKNaECI1CyYr5YyavUL67jdqw/LHVb3lH6JmGlOkV0EOsyjGCGzqzx6/R19X+nrcvxjXZ9akjZ6oUEeTFuYOTP0ct08Mk3W2vDYeKtW/Q+uqgxg1s3I2XaT9Ezh6zHEa7dorTA5eQo5jqO7jvjeMi2f+HsVd2LgUFo07OaclXd6fHZEjFAAiTg8wT8zigUKZXLJdScaiAVHZzzMQPXSHhg5ymdHoO8CDv73Y7pFR07cM7m93d5kpgD+V2sqYD7BpJLnS/GKMfkiN5ky5VRB6xTNbEaGFJa9TTMcR3h8Afl1VaDvpC9247rLVYRH1a9IbTqsZI4LkEvBIKxGWdS2AVbzDKCEbx4Ltxu7MRaxvDB0wT8WnarIv3faef02q3pGSYBEvBNAsk6pnA3SDJnj1a6zvIGKVcLJEbH6zDcRxCsvI1PoGCxkC5X/szxJZUsLuphDEFG5ZpyJqbLZj22P8ZwwWUWnxQqEZ0GM5MgR/ae0T2hQiVzuuxhmDILwn2l5MCuk5qRqas5nkW5mlxJkHJ/uZJzpy7rAff0yt33+ButaRBcgWI8CfgBAb8zCollCuWMVvmDg5pKxizOFbW1zExZ40+D9MojZ83mVhgtccilC+HxlnNJTceFmDyZYowTpunGJ1di0mTKks6jivtYzNRUTPF15tqLr148TgIk4DsEAt4ooAWNGTFohVvn2vvOLRDbiuC9W527dax13Rfj+ileNq+OzpYzg55xhEF4tNjjcj8ZlxMG2z0pGPR/5r0Oah1EtGvMk2WzLBIggaQl4NonkIT1MIObGBD2tJjZRHMnbXBZNHoSQ/tPlJNqAVpySIGi2SVH3kx6+uh89T4hV4K1GbMmrNODwZXUYj0jlesW08GfP11gomJtsY7ity8X6XizuC5WoruMgCFq1b2KYLCfQgIk4N8EfMIoYMolBKuCsQjLk9LhwZp6fQLWN2DaplnYZc6BBWUfDpyk1w5gUVxyCIziwA866lN/O3SWYA2Do2BsZOhTE/SCO7yWGlNFjWBdAVxjeEEdFL+jcb1y8bpex4AB5tKV8ku73jVMVo9s8epsjNngZ5355ZHCWQgJkECSEvAJ9xHWK0DJYfD0ObVyuZx6n05qNZvm/gENXQ7oJpQS3ukPhTvkyfGCbzIsm7VdqjYorqduYm3CljUH5dL5cO2CwXTQ5BK03ns900h+V4vMoFwx3bVUhXwSli5UL17buGK/nk5aSS28w4ppq2DG0/PDOsnHz0/WK7cXTNkk5dTCQMzGOrzvrGxZfUDPHMIbTQd9fK9eCW7N725479bjNkMGN1IadwtkfhIggWQj4BNGAVcPpfaRarFjDr6Zw3/vI7VFXMzySQyxcmpu/6gZT+nXY6xdtFt/EMbkx0yj2s2rSN8Xm9kGb82xpN72eraRVKlfTL5+e6bgVRH4GYHif+D5pi7fm1SzSSm9Ivubd2bqhWZWNxReMwGWD3CFscHJLQmQgAsCyfruI8c6wZVzaPcpOasGTDG9sVSF/B5v1WLlLt7wibUMJcrnEwzU+qLgY0L7d5xQ7qJbuhdlXGwJqSsWqIHjabWQDC/Ey68Ggs24TULyMw0JkID/EnD33Uc+ZRT89zaw5iRAAiTgGwTcNQo+MdDsGyhZCxIgARIgARoFPgMkQAIkQAI2AndtFJy9rsFWKgMkQAIkQALJQsBd3XzXRiFZrpYnJQESIAES8CoBGgWv4mXhJEACJOBfBFwaBXe7IP6FgbUlARIggZRBID7d7tIopAw8vEoSIAESIAErATuj4MqCuIq3FsQwCZAACZCAbxJwpcOdxdsZhYRejrOCEpqX6UiABEiABLxLwB0dfVdGwbuXw9JJgARIgASSi0CCjYKxPGabXBXmeUmABEiABOInYHS12cafIzqFU6OQkEISkiahlWA6EiABEiABzxBIiG6OK01QXAc9U0WWQgIkQAIk4OsEjC1w2lNwVXmTyWxdpWM8CZAACZBA8hEwOtpsE1OTeI0CCrUWbA0n5kRMSwIkQAIkkHQErLraUY/HVYt4jYLJ7HgCE88tCZAACZCAbxFwR1/HaRQcCw4KCrL1GhCmkAAJkAAJ+BYBo5uhv606G7W06nRXtY6l2U0ms3WWEcf08ahUzg4zjgRIgARIIDkIKJ1s088uzm90u9k6JtNGwdVBk9icBFtjhXAs6HImk4RbEiABEiCBZCZg1cmml2D0d1xVs9qAWD0Fx4wmsdnieHBwsP6lPpVPhL0FR2TcJwESIIGkJ6B0MXSy0c+mthLpdgAAK/5JREFUAkZ3m62Jd7V1ahSQ2fxMRuzD8lh/obcySfDOEnL7XHqJuk1XkmHFLQmQAAkkFQHoXuhg6GLoZKuONr0FUxej17F1JSGuDph4YwwiIyO1ocBJYIlCQkKkUcd2Jhm3JEACJCBjhn9FCl4kYJQ5dDDC0MOhoaGSJk0aCQ0Lk9RpU+s4HLcaBGs4vurZjAJOEBUVFSu9iUeht2/ftjMMsRIzggRIIEUTgHKiJI6AUfSucuG4NY3ZN26i1KlT2wwDwlaDgLTQ3RBrGdZzOcbbjILJZAwDEpqwKQBxOCHiYaEoJEACJGAlkCFDBusuw24QcFTWKApx5gdlbwwDegv4wShAN5t4V2WYajk7HqdmRwYYALNFJbCPE+LkFBIgARKwEkifPr11l2EPEHBU3NjHD3oYW+hi6GZsYRiMUcAxx14C4uKTBBsFFA73ESpiDEN8hfM4CZBAyiKQLl26lHXBSXy1UOpGsUMn42d6BTAGZh9pjNFAnMljtnFVO5ZRQCYofSPWfVMgTkYhARIgAUcCHFNwJOL+vtG7KMmEjaLHPsLGGFjDOGbSW/OaGlmPmThsYxkFRCKxMQzOMiKOhgGkKCRAAlYCNApWGncfdqZ3raUZ/Yt0VgNhegeId/YzZcRVvlOjYDJat9ZCUAljNKxpGCYBEkjZBODTpniXgNHFZmt6B9h39UtMjVwaBRRuFL8JmxNibIFCAiRAAo4EOCvRkYjn96GHIUYfW8PWYzAWRky8SWvinW1dGgWT2dEwIB4no2FwhpNxJJCyCVgVUcomkfirtypuZ7mdHUecNd6ErffBxKFMa9jZOXQapfTvjCq7SqXiTTKzNUmxb42zhk0abF3FW9MwTAIkQAIkEJuAK2VujUfYuo9SzL7Zxi45dkwqpawTZBSQ1ZrUGrYWyx6ElQbDJEACJOA9AtYegfUsViNgDVvTuAonyihYCzFGwWytxxISvtt8CSmbaUiABEjAnwkkVpGbazX5zNbEJ2Z710YBJ3Gl2F3FJ6ZiTEsCJEACJOCagCvF7yredUn2R9wyCvZFuTYSjum4TwIkQAIk4BkC7hoBx1rEOfvIMXF8+84qx15DfNR4nARIgAQSRsCZjk1YzoSn8qhRcHbapLgIZ+dlHAmQAAmQQOIJ3FndkPi8zEECJEACJBBgBGgUAuyG8nJIgARIwB0CNAru0GNeEiABEggwAjQKAXZDeTkkQAIk4A4BGgV36DEvCZAACQQYARqFALuhvBwSIAEScIcAjYI79JiXBEiABAKMAI1CgN1QXg4JkAAJuEOARsEdesxLAiRAAgFGgEYhwG4oL4cESIAE3CFAo+AOPeYlARIggQAjQKMQYDeUl0MCJEAC7hCgUXCHHvOSAAmQQIARoFEIsBvKyyEBEiABdwjQKLhDj3lJgARIIMAI0CgE2A3l5ZAACZCAOwRoFNyhx7wkQAIkEGAEaBQC7IbyckiABEjAHQI0Cu7QY14SIAESCDACNAoBdkN5OSRAAiTgDgEaBXfoMS8JkAAJBBgBGoUAu6G8HBIgARJwhwCNgjv0mJcESIAEAowAjUKA3VBeDgmQAAm4Q4BGwR16zEsCJEACAUaARiHAbigvhwRIgATcIUCj4A495iUBEiCBACNAoxBgN5SXQwIkQALuEKBRcIce85IACZBAgBGgUQiwG8rLIQESIAF3CNAouEOPeUmABEggwAjQKATYDeXlkAAJkIA7BGgU3KHHvCRAAiQQYARoFALshvJySIAESMAdAjQK7tBjXhIgARIIMAI0CgF2Q3k5JEACJOAOARoFd+gxLwmQAAkEGAEahQC7obwcEiABEnCHAI2CO/SYlwRIgAQCjACNQoDdUF4OCZAACbhDgEbBHXrMSwIkQAIBRoBGIcBuKC+HBEiABNwhQKPgDj3mJQESIIEAI0CjEGA3lJdDAiRAAu4QoFFwhx7zkgAJkECAEaBRCLAbysshARIgAXcI0Ci4Q495SYAESCDACNAoBNgN5eWQAAmQgDsEaBTcoce8JEACJBBgBGgUAuyG8nJIgARIwB0CNAru0GNeEiABEggwAjQKAXZDeTkkQAIk4A4BGgV36DEvCZAACQQYARqFALuhvBwSIAEScIcAjYI79JiXBEiABAKMAI1CgN1QXg4JkAAJuEOARsEdesxLAiRAAgFGgEYhwG4oL4cESIAE3CFAo+AOPeYlARIggQAjQKMQYDeUl0MCJEAC7hCgUXCHHvOSAAmQQIARSPFGYeqMf6R1185y48YNn7+1165dk7c+eE927NolP/zys8/XlxUkARLwPwIp3iiM+uE7SZ06RGAcfFkiIyPlz2lT5diJE/LMKy9KUFCQrF2/zperzLqRAAn4IYEUbRQ2bN4saULTyPtvvCVjfvvV7vaN+G60jP39V+na9wEpX7eWvD50iJw5e1aniVAK+qPhn0u9Vi2kWacOtlb737NnycdffWErZ9mqlfL8/wbb9sOvhUunXvfLzVu35PDRI9L94b5SvEpFaX5vR1m+epUt3WMDn5E5/y7Q537v0491fHBwsHRq205KFisuBfLllxZNmkq5MvfY8jBAAiRAAp4gEOKJQpKzjI1btshnI7+Sf5cukevXrzutyqnd+5zGj/n1F3m4dx+pULacpEqVSrZs3ybl7ymr0x46ckS27tgujz7QV2pVqy5vf/i+jB3/m7zw9DPy2x8TZY1qpc+a9JdcvHhRK/ea1apJ2dJl5M33h8pLzwzUZfw5dYr8oX4vPfuc5MuTRxYvWyZp0qTR5+r20IPSp3sPGT38C1m4ZIk81P9JWTpzjuTKmVO279wpv4z/XVo2bSqtmzW3q/uBQwflZVXeLxN+l1eff8HumHUnV8li1l2GSYAEvEQgLCxMmtRvIIOUbqhUvryXzpJ0xfp1TwEGoUPP7jJz3lyXBsEVygtKmS9btUrat26jkzyijMNPDr2F4kWKSef2HSR/3rzyeN+HZc6C+TptWvUQnL9wQaKioqRA/vzy/ZcjpEihwlKsSBEJSxMmu/bu0ccWL18u/R540JYPrf92LVvK/EULJV3adDLgsScka+Yscp86R82q1WTazBm26na/r7M+Z6ECBW1xmTJmlBEffyr3lC4trwx83hbPAAmQQPIRQGMUOgi6CDrJ38WvewroIeCG9OzSTd58+RXJni1bgu/H+MmTJDIyQp4a9JzOc/PmTYESf+uVVyVjhgw6rlqVyrbyChUsIKdOn9b7ndq11w8B3Eo1qlaVB3v0lLJlyuhjLZs1k3+XLJbLly/LPaVKSecOHeWDzz+Tvj17ybyFC+Xlgc/J5OnT5dCRw1KjaWOdB38uXrooJYrdad0XL1LUdswawFgCxGytx6xhV70jaxqGSYAE3Cdw9tw5eXfYR/L7pD+012Ls16PdLzQZS/BrowCXESSxBgEtfIwX/G/Qi5IpUyYb/tDQUPljyl/ySJ8HdFxQKucdqYiIW/Lpe+9LxK0Imb94oQwc/IpyD+XVBqJV02Yy/OtRggelTYuWUrFcedl/8ICsWLNa8qkeR55cuSVn9uxStVJlGf/DGNu5b6s6BccofESiS0ohARLwfQJojEIHwSgYneT7tXZdQ+daz3V6nzpixhAS00PABSxevkz3Krrde59AiZsf3DljfhsX7zV+8tVXMnzUSMmZI4fc37mrNG3YULbv2qnz1VBuIIwJ/DN7ti4XkU0aNNQD1W2VkYA0qldf1m3cIJu2btUtfoxnPDKgv6zftFEf5x8SIAH/ImB0kNFJ/lV7+9r6tVGwv5SE7/346zjtcnLMUblCBR21cu0ax0N2+88+8aQahN4hLTt3kvv69BKMT3RXBgYSomYJ1atVS7JmzSI5VI8A0qZ5Cz2I3aZFC72PweSvPxsuvR57RFrc11GqNWkoBdWMoioVK+nj/EMCJEACyUUglXKlRCXXyd09r5lhk1z+8ytXr8rt27cFA8B3I0B/9NgxyZUrl4SmTn03RTAPCZCAjxBIbn3kKQx+PabgKQh3W06G9OnvNqvOB7cRZi9RSIAESMBXCKRI95GvwGc9SIAESMDXCNAo+NodYX1IgARIIBkJ0CgkI3yemgRIgAR8jQCNgq/dEdaHBEiABJKRAI1CMsLnqUmABEjA1wjQKPjaHWF9SIAESCAZCdAoJCN8npoESIAEfI0AjYKv3RHWhwRIgASSkQCNQjLC56lJgARIwNcI0Cj42h1hfUiABEggGQnQKCQjfJ7afQLmfTPul8QSSIAEQIBGgc8BCZAACZCAjQCNgg0FAyRAAiRAAjQKfAZIgARIgARsBGgUbCgYIAESIAESSLFGAd9RxiDl5+qzms4EX0Qb+skwZ4dcxn0z5kdd5o5du3SaUd9/J7WaN3GZ3npg09YtOu/TL71gjU72MD4itGTFimSvBytAAiSQNARSrFEA3mD16czh34ySI+rrZ56QCmXLyuN9H5ZsWbMmurifx/+uv/k8beYM/XnPRBfgpQzvffqJjB7zg5dKZ7EkQAK+RiBFG4UihQpJ9SpV5M33h3rkvtSrVVuGvv6G4BvMiRF81nPStKny/htvSXZlUCb8NSkx2b2a9tz5c14tn4WTAAn4FoEUbRRwK6CIZ82bK4uXL4v3zmzcskV6PPKQlKpeRWq3aCqvvvu2XA0Pt+Vbv2mTdHvoQbkVEWGLS0jgz6lTJF26dNK2ZSvp1bW7/DJ+fKxsv/4xUV4b8q7s3rdX+r/wvNRv3VJu3Lgh5pxbd2yX+/r0kmKVKwhcX6v/+08f/9+Qd6RS/bpSrk5Nbfxu3rplKxvG6PWhQ6Ryg7pSoW5tGfTaq7JizWp9HNeFa5m/aJGs3bBeh7F//uIFQRkIr9u0UeAy69izh3z17Tc6H747PebXcdK6y31StFJ5adS+jXzw+ady8+ZN23lNnQ8dOSwPP/2UrlvNZo3l4y+/kIjISFs6BE6ePiX9XxwkVRs30HV84vmBcvT4cV3XSdOn2aXlDgmQgPsEUrxRKF2ipPR7sK+8+s7bcSrz5atXSbseXZXSitCGpEPrNvL3rFnSqdf9EhmjyM5fOC+Lli2VKOWHT4yM/f03ub9zV0kdEiK9unWXPfv32ZSzKWffgQNaCfd89BG5fOWKNGnQUFIFBYk550g1ftGsUSN565XBcvVquGBs4t+lS+TYiRPy7v9ek9bNmsv3P4+Vb3/60RQpA15+UeYuXCD/G/SifPnRMLl+/bp0eaC3rNu4QYJV2eXvKStZs2aRTBkz6jD2U4ek1teH6/xWGQSUV6ZUKSlZrLguFwbrrQ/fl/p16sjwDz6SLh06ybiJE6Rt967amCCRqfM7H30ohVVvDYa5WqXKMvzrkTLi29G2+p04dVIat28rGzdvlqcffUzef/MtyZoli3To2V1mL5gvhw4ftqVlgARIwEMEVMvObyVniaJR+N2NqAHmKNXa11kvXroUVbZ2jagR3422FdX83g5RQz7+SO+rwdaohu1aR3Xt+4DtOAJbt2/X5x8/6U8dP3/RQr2vWvB6f+R330apFrAOu/qzdv26KDXgHaWUvi3J/Y8+HPXk8wNt+wi8O+wjXV/VCreLN+dUhsUWf/DwIV2PJ557Vtmn27Z41bqPatXlPr2vWvtReUuXiPrp919tx5Vxi6rfpmWUGt+wxT336itRvR971LaPgDIeuvye/R6OUgbKdmzW/Hn6WlatXWuLQ+D4yRNRJatVjvpkxJc63tRZDfbbpXtkQP+oGk0b2eKUYdP7V8Ov2uIQ+HHcL/r8n40cobd2B7lDAslEwB19lExVdnraFN9TgG1FS/iNl16WT776UtA6dRS4Obbv3Cn9H+1nd6hsmTK6lWxcLnYHE7jzk+olYCyiaOHCthwPdO8h02fP0i1qW6QKnD5zRh7ocb81yhZGj8dIoQIFJXfOXJIqVSr9M/EN69aVY8r1AkGvJE+ePNpVtXTlCt2KD1K9g0V/z3R5DlOO2davXVcypE9vdmXGnNnSqF59qVmtmi0OgTy5cqsye6rjc+ziHdM1bdhIDh89KupJ1ekWLF6ke3Hp0qazy/fg/T3tzmt3kDskQAJuEaBRiMHX474uUrpkKXnnww9iAd27f7+O69nvEclTuoTdD9NPDx89EitPQiIuXLwoU2f8oxVhl759xPxG/zRG++B/n2Q/4Fwgf349Y8pZ2RXLlbOLzpghg9xTuox9nDJ+kbfv+Oy//+IrSZMmVDorl5FqyQv89XCTJVSKFCxol3TX3r1iNU7Wg6VLlJBde/dYo6RqxUp2+zlz5NCuOEyDhSvrzNmzAgPnKJg1li9PXsdo7pMACXiAQIgHygiIItCq/uDNt6VNt87yYM9edtcEZQUZM2KUlFfTTh0lTWgax6gE7U+cMlnC0qSR7vfdFyt9WFiY/DLhd7veSdqwtLHSmQgoSkdRlxSnVFV+/H8m/KmV9byFC2XG3NnaQIwY9omqU+c48+Jg2rT29cmTK5ecOnPaaT7Eo/diFTB3Jbh+zOLaf/BgrCQYjD563DPTiGMVzggSSOEEaBQsD0CVihWlZ5euMvidtyQo1Z1OFAZR06vZQfMWLZQ2LVpacohS3OOlnZo1dDcy9rffpGune+WlZwbGyo7B5rotmwtcO/Vr14l13N0I9G76PTtADTB/rFv3pYqX0Aao+b0dZYaajWWMAhT37aiEDZzXrFZdPhv5lW7h58ie3VZFDMRPnj49llvJlsBFoGWTpvLd2DFqRlY3yZwpky3V2N9+lezZ7pRvO8AACZCA2wTuaD63iwqMAl5/8WXtd8cUTyNotb74zLPyh5o6OvL7b+XU6dNa8X33808y+O03Zc36dSZpgrdw02B6aZ9uPZzmKVG0mFaiWNTmDcmfN59EREQKFqcdOHRInwLjJjv37Bas3zCC8YBtO3YIZj9Zp9+a49bto30e0L0BNVAu/6lprJiGimt8VBkfNfgtYJsYee2Fl9SYSJA07dhevhz9jYyf/Kc888pLukeTNm1YYopiWhIggQQSoFFwAJU9WzZ5eeBzDrEiTz3STwYPfF6Gqbn0ldS8fsz7//rHH2T08C+lVdNmsdLHF4FpqJUrVBAMVrsSrFnA4C18654WDCp//v4HsnffPsEaAay96Pxgb8FU2xcHPGs7XW816A03Tp2WzaRqowa2eGeB0NBQmfzLr1JQjX2069FNCpQrI/VatdBGdMbESWocII+zbC7jcC8W/j1DOrZpq6agzlPTX3+SNOocX3wwTE2LjbIbRHdZCA+QAAkkikAqzElKVA4fSmw+sHJq974kqxVcIXDtZMmcOZaPPMkq4cET4fYfOXZUr20oXbKkS0WLmU/oKVh7EXFVI/xauGCAHoPjWTNniSupy2M7d+8WNV04ltsJ96BYlYry2XsfyFODnpOkvP8uK8sDKZ5Acugjb0DnmEIiqWJA19UMm0QW5RPJMWZQMH+BeOuCwfbEvLwD00grlLWfERXvSRwSDPtyuHZDLZ4xW08bNoe/UgvcYMxqV69horglARLwEAEaBQ+BZDGeJ4AV0W26dpYqDeupFdJ19VoOjFWs37hRPh7ynuTPy2mpnqfOElM6ARqFlP4E+PD1Y63FnL+m6Pc4qVXSckRNQ23aoJF89dEnCXZj+fDlsWok4JMEOKbgk7eFlSIBEvA3AoEypsDZR/725LG+JEACJOBFAjQKXoTLokmABEjA3wjQKPjbHWN9SYAESMCLBGgUvAiXRZMACZCAvxGgUfC3O8b6kgAJkIAXCdAoeBEuiyYBEiABfyNAo+Bvd4z1JQESIAEvEqBR8CJcFk0CJEAC/kaARsHf7hjrSwIkQAJeJECj4EW4LJoESIAE/I0AjYK/3THWlwRIgAS8SIBGwYtwWTQJkAAJ+BsBGgV/u2OsLwmQAAl4kYBfGwV8Oxly9tw5LyJi0SRAAiQQNwGjg4xOiju1bx/1a6PQpH70N4PfHfYRDYNvP2esHQkELAEYBOggiNFJ/nyxfv09hY1btkiHnt3l+vXr/nwPWHcSIIEAIIBewvTfJ0ql8uX9+mr8uqcA+LgJbZq3kEDotvn1k8TKk0AKJQDdAx0UCAYBt9Cvewop9BnkZZMACZCA1wj4dU/Ba1RYMAmQAAmkUAI0Cin0xvOySYAESMAZARoFZ1QYRwIkQAIplACNQgq98bxsEiABEnBGgEbBGRXGkQAJkEAKJUCjkEJvPC+bBEiABJwRoFFwRoVxJEACJJBCCdAopNAbz8smARIgAWcEaBScUWEcCZAACaRQAjQKKfTG87JJgARIwBkBGgVnVBhHAiRAAimUQEhKu+6oqKiUdsm8XhIggbskkCpVqrvM6b/ZAt4oOBoBx33/vXWsOQmQQFITSAlGImDfkmpV/ibsuMUDZeKS+uHi+UiABHyPgFXpm7DjFrU2cb53Be7XKCB7CkbRY2t+QGXC1uOOCM0xx3jukwAJBB4BZ8rdxGFrfrhyE8YWegLbQJSAMgpGoWPr7Ldr7x5ZvHyZrNu4URA+fuKEXLl6VW7fvh2I95bXRAIkkAgCQUFBkiF9esmbJ4+UKl5CqlaqJA3r1tNhq0EwYVN0oBmHgHEfORoEKHrEYTvhr0nqN1nWrl9v7iO3JEACJJAgAtWrVJEe93VWvy4CwwEjYLbGIJhtggr08UQBYRQcewUwBPjNmDtHPv96pOzcvdvHbwOrRwIk4OsESpcsKc8/9bS0bdFSGwWrYYBRCBTD4PdGwZlBiIiIkFfffVt+n/Snrz9nrB8JkICfEejZpat88ObbEhISYtdjCBTD4NdGwbiMjKsoMjJSjp04Lv1fHCT/bdjgZ48aq0sCJOAvBKpVriyjPvlM8uXJK8HBwTaXEurv7z0GvzUKrgzCA08+Lrv27PGXZ4v1JAES8FMCpUqUkF+++TbgDINfGwUYBjN+AJdR5wd765lFfvqMsdokQAJ+RgAzlCb//KvNlWQdZ/CzS7FV1y/ffWQdR4BRgEEY/M5bNAi228oACZBAUhDA9HboHugg48Y2+ikpzu+Nc/idUTBuI9NLwDgCZhmNnzzJG3xYJgmQAAnESQC6BzoIusgYBmQwuirOzD540O+MgoFtrDFuBKadUkiABEgguQhAB0EXGb3krwYB/PzKKBjQBjxuwsQpk2X33r3J9SzwvCRAAiSgdRB0kdUwAIvRWf6EyK+MgoFsjAL8eFipTPEeAbzeJUeeTFKweA5JHRrsvRMFYMnBwUGSr0g2yV0gi6QKCsz35ATgbbvrS4Iugk4y+skfDQIu3m/ffQTf3e59e2X9pk13fROZMW4C1RuXlCdebyV5C2fTCSNuqfGb3/+THz+cKwhDvp7VXw7tOS0fDPhD75s/38x5WvZuPS4fPz9ZzeMOkqk7XjeH9HbPluOyYu4OmfHbWrl84ZqOe+D5JtKjfwO5eum69K71ifoHs38nVfkaheXD3/rqtAM7fSt7t52QynWLydCxfeSlHmPk0vlwGa3O60oiI29LpzJDXR2WVt2ryDPvdZCZ4/+TkW/8Y5fOnOfiuXB5tMmXcj38pu34oGH3SpkqBeTxFiNscV361ZXuT9WX9JnCdBzq9vNnC2TW+HVStlpBGTb+Yfnkhb9k4bTNtjzNO1eSHk83lB8/misr5uywxXfuV0ceeaWFPNFypOTMm1lfr+2gJbBw+hb5ZNBkGxPLIblx7ZYc2n1afv1yoaxdxCnbVjaeCkMXQSeVLV1GL2rzVLlJXY7fGQVjhdFNW7RsaVLzSjHnK1Qyp/xvRDfZuvaQjHprhkAZNr2vonR4sKYEqe7DN+/OTDSL5XO225Rd6UoFtAEoWSGfDH1qgq0sNctYK9LK9YrFUl7125RVrTAsDrIltwtcOHNFvnptui2u98DGcv7MVZnx6xodd/t23B9YatG1iur+35aG7crLd+/NlpvXI2xlmUDmbOmk00O1ZMKoJSYq1rZltyry8CvNZfrPq2Xe5I2SKUtaade7ugwY0l4un78mqxbs0koaRs5qFGo1Ky15C2WVmk1K2Tih8HLVC8m5U5fl6P6z2iggDuc/su8MgjY5eeSCLYyANU22XBmlRdfK8sbo++W5e7+T/TtO2qXljmcIQCeVLlFSL2iDrvLHhWx+YxSMMcCtQy8BRoG9BM88yM5Kqd28tKROHSyj3vxHjh86r5Ps235CKy0Yh2/fmyW3I+NWso7l7t9+Uv6dGt0yxjYsfag0al9e9ySgjCG3bkbIgZ0nBQbA2qKF+6Vu63tk+3+HpKxSks7k6uUbMnvinZcednq4tpxSitIa5ywf4goUy6Fb++OGL5Q+zzWWui3KCFrejrJj/RHp/Ggd+XvcGt2jcTyO/QbtysmJw+flu/dn2xhtXnVAfl4+SCvmZbO3y7Z1h6V8rcK27Li+CrWKyLWrN6VSnaJ34pUBxPX+t9h+3Gz90n2yZc1BWzpnAcc0y2Ztl+8XPCMN2pajUXAGzANx0EnQTdBRWLNgXEj+ZBz8dkwB0Pfs3+eB28ginBGAyweKKkQZBqv89tVi7apJrEGwlmHCcGncvH5L1IvOTZTeLpu5XWopoxQScufxLFetkGTLmUGWztxml9ZTO827VNIKefIPy2X35mPSXLWqncnEb5ZKsKoX3EOuBOygEEJC7rCDK+yzl6bI8MHTdDYYiQJFs0uWHOn1folyeSVD5jD568cVkit/ZpvLrmCJnJIxc1rZvHK/q9MlOP7c6cu6h4LzULxDADoJusnaiPXOmbxX6p3/Ou+dwyslA/zJU6e8UjYLFVk1f5ceN/h4wiPy1NttpbZqOYelTa3HCQ7uujvuGJuo2qC4YKyijxo/aHpvRZmuWtyOBmbprG1aEVa0tJjRc8AYwrGYXosn71FQcCrlGqukXTZwGaEXU6l2UcmZL3Os01w8e1Wm/rRKOioXElxJzgSGC4r9q+lPCMZJ4CaCgUXP54LKD9m08oDelqse3VtA7wA9nSk/rtTcK8dcO1xHkE2r7HsFRUrn0mMTGJ8wv/QZ0+i05g8mBoSGhehfnoJZ5eGXmksadQ93bjxqknDrYQLQSdBN/ix+4z6yQgZ0dNGuhodboxn2IAG4igb3HqvHEOCLhk88/MoNWTBlk/yhWstnT15O9NlgBPAzcvniNVmoynMU+MYxSA1DsG7JXq1Q4TqaPnaVY1KP7FdrUEL3Qv6dGl2XJTO2Sr9XW0ozVdfxTsYOJv+wQvGoId2erC/fvz8nVh0weI7B8tb3V1WDzQ302Mmpoxdl1oT/5C+V99bNSNmjeiPXVU+pQs3CskwZwUp1i+reABhvV64l7GPAu5wyKGdOXJLjB8/ZnefJt9rY7WPnfw/8bDM22B/yUx9s7AQD2LiHFO8QgE4y7iPvnMH7pfqlUQAW46vzPqKUewb4z/FLlyGNoNVeo1EJaderum6ZPtvx20SDwcDrP6pnAMmWO6NWqsOnPCYPN/rCNgPJFIrWdmflosEsoHuqFrS5jvIr37+nBa4i+PIxQ6hImdy6+P07TkizLpWdGgUo/EnfL5eeAxpqJe+sPov+3iL4YTovBs0btS8nDw5qKlmyp5dvh87WM6u2qUH88jUK6am+cI9h1hFkw/L9cq8aD8GAennVU9js0EtAmpFqrGfv1hMI2sRx4HnKmJVy7MA53TvDYPfvI5fI+qX2YxO2zAx4jIC/6ya/dR/hDqZP57z77rG7m4ILgrvo6SHtNAG0Xleq6aNfvf63TPh6iRS7J492j+AgxgXg67cK3DFZsqXXx6zxULpH1Awa/OA++U4px7B0oVKraSlrMh1eqgZFMypFVrF2Ed1jgOvIDHjHSuxGRKas6fT506pB7y+mPi4jlMsHv+LKx4+ZQHD9OBP0WsKVu+d+ZRisAjdRtyfq6R4W4tHKnzdpg7zx8K96Jlft5mVsyTGuULh0bqnRuJR28WxYFj1Ghi2uHfcgR95MilXs8YTDe87Irk1H7X64T1ZZOXennvI7fPBUtV4iuxogr209zLAXCASCTvJro5Azh+dbjV54TvyyyDpqoLd196qS1UHhB8cMnprpnUcPnBVMLzXz8XGxpSrm14OmmEIZl0AhQzBw6yhwl2DaJGbywHW0VLl0vCGNO1bQg+lYT/Fqn59tv9f6/qLdOxiAdiZw/cBAYhprnoJZbEmi1LTX1j2rSRv1cxRcp9XfDMOI3kDPZxrKmeOXtLFEnt1b/t/e2YVYVUVxfBE6o5kaig1TYTNO2WQYBplBllk5Y5qWvZRZpEg9GCaBlGGCEhlEHw8WUw/hQ1FYQSTmoBglZWRRmJWYgomFZpPW+JGjvrT/J5bdjneGcnvFs+9vw3Hfc8/Zx7N+a1j/u/fa+5zdWX7h3rnjskuU6ynkr93T/qHOLmtbvNquHtuUDWn1dC7H4gikEJMKOXzkbzgadkmD7di5M86LtC5LYFWY239jmC46//lpYcHTejsUxv+V/Jxy/2jbuunnLIip4ZoVX2fTSp9aPsNWhgTseeEX7h0PjMkCqoZPSouGZhSEVS4MSedbwmItDdt8FfIG5cqGMIQ0/ZFx2ZTVSs06Ur5E+Yv8vep+Pgu9FeU1XllSfk1Ge1jIp+mpmjKqYRov74dk8UOLJmbbunc3WU1tr+w6zaMutnde3eCnmRbwaRFcY+Ci3oQXJd4120g9hY7dndn0Vj/m9aixw7JehO+rlrB0N01V02C1TmT2gpYsT6McB+X0E1BM8vh0+q9+Zq5YSFEQGoEfOWKErVv/8ZkhVWX/y/bNu7NFZQ8ubLFn35qZWa+FYxpGaisJkvq1+9KiVTbrsQk2/4W7svMUyJ6e8/YJ4XB017deYdpUNNNmx5Y92apeBbNyRUIw6b7R9lNYMV2JoSMNESkgd7cQ78P3vskW7EkYfvvl5MS6VnW/uWy9zXtm6r9uf2XInZwTegVanT01LPZT0awmJZnfePGjE+dqbcZ3X+6ya0KuxoeO/KDyChKF7noJ94Rr54uCfneioHPbFrdbW/scm7d0qj058/VsIWD+GuzHEVBMKtKahHLWFuYlOz7vV7WeL/JnyPJv+naz3T17Vjm7+O40EtAQksa49euy9PEOpf+FxtI17VGLz7oL8qXnV8Nn5Vb0WAqt9dCMKn80SDXYXq02rnhtuY0aeZWdG/Kdeoez9xqKJBSF6Sk4VImCPuu9qJc2DrMrm5vt+63/PCemWv8YK2n37x2HTFtPRWPp+WmTPZ1fDcc0DJR/9EQ12F2tNioWKSb5O5vFwUWhSExOzvCd5XfvkAW+pqbGprROPMvvmNuDAASqgYBikWKSi4L/kC2a7YUTBQH2noK6Z3dOut0ahg4tGnfuFwIQSIiAYpBikWKSi0JRzSucKHhPQc+WkSrX1tbarOkzisqf+4YABBIgoBikWKSYpNjkcaqIphVKFLw7pvrvB471yhwx4abx1jr+5iLy554hAIGCE1DsUQySKKin4KIgszxmFcnEQomCg3UVVjdNjlCmf8G8R214U5OfQg0BCECg4gQUcxR7FIMUi3zoqIhi4LAKJwoOW7Uc0Lt3b+vbt6/179/fljz+hF1UX++2UUMAAhCoGAHFGsUcxR7FIMUiFwX9px6rKnYDFbpw4UTBYQu4C0OfPn2sX79+1hhWEy5duMiaGhoqhIvLQgACELAsxijWKOYo9igGuSB4bCoqp8IsXssD9icR6lky2o4dO5YtaOvs7LSOjg577uVl9snGz/PN2IcABCAQReCGMdfZ/Ifn2pAhQ2zgwIHZ0JEnmJVPUClqLyG79xBcw8MLiln81l0Yjh49akeOHLGDBw/avn377IO1a+y99vA6yb28j7aYHuauIXD2EKivq7Npt022yS2tNnjw4BPDRsolSAxSEATRLmxPwf9UJAy+SRyOHz+eCcPhw4ftwIEDtjcIwup1a+3TLzbaj7t2eTNqCEAAAv+JQGNYgzD22jE26dYWqwvCMGDAgGzIyPMIPtuo6MNGDqPwoiBDXBRUSxj0bCTvNUgcNKS0f/9+27p9m23Z9kMmDnt+3Wt/hO+7Qu9C7SgQgEB1E1BQ7xN+9Z8fhoTqL6gzicGI4Zdb82XDbdCgQdlQkfIHEoP89NNUBEF/AUmIggzxwO7CoFfiuTh0dXWZNj1ET0NLEgrtKw+h87ytrkOBAASqk4ACu5LFyg/45BXNLNJ0U+1rczHQed5DEC21TaUkIwpyiAd31aXioMCvYSWJgDZ9lmCoV6FjFAhAAAIi4MFei9A0xVQCoc2nm/rx0p5BSoIgBkmJggxSKScO+k4CoM0T06rzxdvmv2cfAhBIj0C5gO5JY9USAW06z3sG3sbr1KgkKQpyUmlw988uAtr377xOzbHYAwEI/H8CHuhV+2eJgYrv5z9nBxP6J1lRcB/lg35+38+jhgAEIJAnUCoEOpbfz5+fwn5hXrJzqrCrwYmnyoZ2EIBAzwSqMX4kLwp5l1ejk/MM2IcABCDQHYFCPvuoO2P4HgIQgAAE4gggCnH8aA0BCEAgKQKIQlLuxBgIQAACcQQQhTh+tIYABCCQFAFEISl3YgwEIACBOAKIQhw/WkMAAhBIigCikJQ7MQYCEIBAHAFEIY4frSEAAQgkRQBRSMqdGAMBCEAgjgCiEMeP1hCAAASSIoAoJOVOjIEABCAQRwBRiONHawhAAAJJEUAUknInxkAAAhCII4AoxPGjNQQgAIGkCCAKSbkTYyAAAQjEEUAU4vjRGgIQgEBSBBCFpNyJMRCAAATiCCAKcfxoDQEIQCApAohCUu7EGAhAAAJxBBCFOH60hgAEIJAUAUQhKXdiDAQgAIE4AohCHD9aQwACEEiKAKKQlDsxBgIQgEAcAUQhjh+tIQABCCRFAFFIyp0YAwEIQCCOAKIQx4/WEIAABJIigCgk5U6MgQAEIBBHAFGI40drCEAAAkkRQBSScifGQAACEIgjgCjE8aM1BCAAgaQIIApJuRNjIAABCMQRQBTi+NEaAhCAQFIEEIWk3IkxEIAABOIIIApx/GgNAQhAICkCiEJS7sQYCEAAAnEEEIU4frSGAAQgkBQBRCEpd2IMBCAAgTgCiEIcP1pDAAIQSIoAopCUOzEGAhCAQByBvwDqvQob8pHjMAAAAABJRU5ErkJggg==;" vertex="1" parent="1">
          <mxGeometry x="103" y="121" width="69" height="77.34" as="geometry" />
        </mxCell>
      </root>
    </mxGraphModel>
  </diagram>
</mxfile>
